<svg version="1.1" id="Layer_1" xmlns="http://www.w3.org/2000/svg" xmlns:xlink="http://www.w3.org/1999/xlink" x="0px" y="0px"
	 width="100%" viewBox="0 0 499 287" enable-background="new 0 0 499 287" xml:space="preserve">
<path fill="#000000" opacity="1.000000" stroke="none" 
	d="
M321.000000,288.000000 
	C214.000015,288.000000 107.500038,288.000000 1.000043,288.000000 
	C1.000029,192.333374 1.000029,96.666740 1.000014,1.000081 
	C167.333267,1.000054 333.666534,1.000054 499.999878,1.000027 
	C499.999908,96.666588 499.999908,192.333176 499.999939,287.999878 
	C440.500000,288.000000 381.000000,288.000000 321.000000,288.000000 
M407.114105,230.324036 
	C407.385864,230.250992 407.657593,230.177933 407.973602,229.528305 
	C407.986359,229.335983 407.999146,229.143646 408.403778,228.795364 
	C408.481201,228.678680 408.639557,228.473175 408.623779,228.458817 
	C408.431091,228.283249 408.212891,228.135757 407.996918,228.000381 
	C407.996918,228.000381 408.016296,227.997177 407.517639,227.371384 
	C405.048676,227.244934 402.579712,227.118500 400.110718,226.992050 
	C400.077728,227.430038 400.044739,227.868011 400.011749,228.305984 
	C402.004456,228.541885 403.997131,228.777771 406.001434,228.997620 
	C406.001434,228.997620 405.981964,228.994934 406.110352,229.515640 
	C406.413208,229.686234 406.716034,229.856827 407.007111,229.993881 
	C407.007111,229.993881 406.971832,229.989456 407.114105,230.324036 
M36.996941,61.997978 
	C36.996941,61.997978 36.939041,61.931862 36.443691,62.078854 
	C36.351265,62.375183 36.258839,62.671513 35.917522,63.563408 
	C34.930714,64.667671 33.943905,65.771942 32.454071,67.055351 
	C32.355614,67.360603 32.257156,67.665855 31.927580,68.551308 
	C31.270868,69.332108 30.614155,70.112907 29.476091,71.076584 
	C29.378260,71.370499 29.280426,71.664406 28.886541,72.609161 
	C15.392790,90.854362 8.263627,111.665756 6.201978,133.932175 
	C4.506231,152.246750 6.562339,170.452316 12.989424,187.980484 
	C18.789402,203.798370 27.045277,218.133698 38.239925,230.681015 
	C50.308220,244.207550 64.788910,254.587189 81.439560,261.729584 
	C91.496117,266.043396 101.674484,270.299652 113.926231,269.965942 
	C118.285271,269.919678 122.644310,269.873444 127.867836,269.976929 
	C132.249298,269.649200 136.657608,269.505005 140.994141,268.870239 
	C142.139084,268.702637 143.062469,267.021545 144.841095,265.963715 
	C145.178162,265.566193 145.515228,265.168671 145.852310,264.771149 
	C144.575012,264.581116 143.297714,264.391083 141.095901,264.033508 
	C135.731979,264.082275 130.368073,264.131073 124.167557,264.021210 
	C120.790962,263.651459 117.414360,263.281708 113.658691,262.200562 
	C100.407478,259.902954 87.662376,256.156860 77.009438,249.020050 
	C80.162582,249.015930 83.315720,249.012619 86.468864,249.007599 
	C121.979881,248.951080 157.490906,248.894302 193.926102,248.975952 
	C198.614105,248.930023 203.302124,248.884109 208.919907,248.973770 
	C219.524445,248.941589 230.128967,248.909409 240.733505,248.877213 
	C240.741837,248.147827 240.750153,247.418442 240.758484,246.689056 
	C238.923462,246.457077 237.091965,246.191299 235.252716,246.000214 
	C231.522797,245.612686 227.788681,245.265579 223.566040,244.237793 
	C218.044373,243.823807 212.526749,243.338699 206.999405,243.024475 
	C204.032227,242.855789 201.048355,242.980728 197.786575,242.341263 
	C193.382004,234.390442 186.944031,228.388184 179.096359,223.736801 
	C179.325836,223.394547 179.555313,223.052292 179.784790,222.710037 
	C182.970291,224.110947 186.155807,225.511871 189.033173,226.777267 
	C194.903519,215.747620 200.382126,204.796219 206.468140,194.193466 
	C213.343887,182.214844 216.678589,169.570847 216.034760,155.757736 
	C215.707458,148.735641 216.021820,141.685059 215.959549,134.648117 
	C215.945160,133.021469 215.751511,131.352280 215.341339,129.780701 
	C213.224579,121.670059 211.010529,113.584808 209.120224,106.566612 
	C213.596146,99.371254 212.400162,91.839523 212.822067,84.495956 
	C213.636414,87.343964 213.903732,90.197693 213.998474,93.057144 
	C214.094406,95.952385 214.019638,98.853279 214.019638,101.870331 
	C221.299225,100.359344 228.531555,91.989914 230.062485,85.070724 
	C231.561386,78.296265 233.833755,71.692940 235.876160,64.295784 
	C235.263458,62.832111 234.650742,61.368443 234.027176,59.985786 
	C234.027176,59.985786 234.108780,59.990425 233.985504,59.275818 
	C232.334839,56.819798 230.684189,54.363777 229.018524,51.982689 
	C229.018524,51.982689 229.094299,51.992512 228.922211,51.469002 
	C228.616928,51.284199 228.311646,51.099396 228.023621,50.988152 
	C228.023621,50.988152 228.095978,50.966473 227.998825,50.307114 
	C227.458557,49.765118 226.918274,49.223122 226.354095,48.625633 
	C226.354095,48.625633 226.341751,48.566490 226.299438,47.968723 
	C225.213089,46.941860 224.126740,45.914997 222.748672,44.258350 
	C221.186417,43.450638 219.624146,42.642925 218.060379,41.939777 
	C218.060379,41.939777 218.163712,41.923641 218.468155,41.229519 
	C216.656143,40.125214 214.844116,39.020905 213.005814,37.983719 
	C213.005814,37.983719 213.073090,37.957821 212.805939,37.317322 
	C211.210358,36.515224 209.614777,35.713127 207.612335,34.291775 
	C202.750015,32.915489 197.887680,31.539204 192.224350,30.021933 
	C190.181534,29.667540 188.138733,29.313147 185.732391,28.286024 
	C184.657227,27.933393 183.606079,27.413950 182.503006,27.255121 
	C175.171188,26.199427 168.995438,20.271740 160.146255,22.055443 
	C148.276855,18.860891 136.176193,18.559935 123.113373,19.011961 
	C116.716438,19.957710 110.319511,20.903461 103.280243,21.972446 
	C102.851395,22.035982 102.422554,22.099518 101.210281,22.031303 
	C97.761162,23.338554 94.312035,24.645805 90.415649,25.989164 
	C90.415649,25.989164 89.996101,26.148293 89.233536,26.016006 
	C85.776688,27.661621 82.319847,29.307238 78.415825,30.992239 
	C78.415825,30.992239 77.995583,31.150063 77.335716,31.013830 
	C76.510872,31.660019 75.686020,32.306206 74.414894,32.988297 
	C74.414894,32.988297 73.996269,33.147095 73.330414,33.001572 
	C72.506683,33.651573 71.682953,34.301575 70.407097,34.992226 
	C70.407097,34.992226 69.984779,35.158703 69.458855,35.083351 
	C69.266960,35.369637 69.075066,35.655918 68.961464,35.971092 
	C68.961464,35.971092 68.935097,35.891922 68.278885,35.990639 
	C67.473114,36.644577 66.667343,37.298512 65.408821,37.990536 
	C65.408821,37.990536 64.984856,38.153931 64.449020,38.083347 
	C64.253662,38.375240 64.058304,38.667137 63.318596,39.132286 
	C62.874229,39.472168 62.429867,39.812054 61.448498,40.080925 
	C61.252621,40.373402 61.056747,40.665874 60.315426,41.133114 
	C59.871639,41.476204 59.427849,41.819294 58.451462,42.088726 
	C58.256931,42.378990 58.062401,42.669250 57.403976,43.066868 
	C57.104465,43.248951 56.954514,43.515251 56.290413,43.976593 
	C55.487049,44.637463 54.683685,45.298328 53.279560,46.178528 
	C52.180218,47.169418 51.080879,48.160309 49.455284,49.074173 
	C49.265221,49.361237 49.075153,49.648304 48.963470,49.961414 
	C48.963470,49.961414 48.940132,49.882187 48.429005,50.063519 
	C48.237488,50.361156 48.045975,50.658791 47.237301,51.196232 
	C44.144314,54.429939 41.051327,57.663647 37.466759,61.081467 
	C37.286068,61.370281 37.105381,61.659092 36.996941,61.997978 
M298.742706,231.078568 
	C299.302551,230.504547 299.862396,229.930527 301.124451,229.229218 
	C302.758148,229.475998 304.391876,229.722794 306.056732,230.254288 
	C306.136871,230.230484 306.216980,230.206665 306.297119,230.182861 
	C306.190369,230.127380 306.083649,230.071899 305.834961,229.463303 
	C305.834961,228.660309 305.834961,227.857300 305.834961,227.044281 
	C303.859161,227.044281 301.922455,227.022095 299.991791,227.119583 
	C299.908325,227.123795 299.880463,228.229752 299.251892,229.024841 
	C298.817749,229.670761 298.383606,230.316696 297.513916,231.268372 
	C297.276154,231.910751 297.038391,232.553116 296.800598,233.195496 
	C297.000275,233.263855 297.199951,233.332230 297.399628,233.400589 
	C297.638031,232.635773 297.876434,231.870941 298.742706,231.078568 
M399.046844,240.079620 
	C398.955231,238.252029 398.863586,236.424454 398.771942,234.596863 
	C398.149078,234.725098 397.526184,234.853317 396.903320,234.981552 
	C397.580170,237.001068 398.257050,239.020584 398.990570,241.797012 
	C400.515259,245.665543 402.932709,245.449341 406.773376,243.752182 
	C403.521454,242.543716 401.313446,241.723175 399.046844,240.079620 
M446.084503,231.211792 
	C445.784210,230.022995 445.483948,228.834198 445.183655,227.645386 
	C444.724426,227.847717 444.265167,228.050034 443.805939,228.252350 
	C444.518280,229.515564 445.230621,230.778793 446.005035,232.791260 
	C447.350342,236.758636 448.695618,240.726013 450.236694,245.270706 
	C450.706665,244.459732 451.856323,243.294235 451.614166,242.762207 
	C449.935242,239.073288 447.966858,235.516083 446.084503,231.211792 
M351.923737,243.934311 
	C354.231049,238.169876 353.350494,228.647186 350.910950,227.533585 
	C350.910950,232.833603 350.910950,238.370667 350.460236,243.992279 
	C350.211792,244.135681 349.963318,244.279068 349.714874,244.422485 
	C350.187073,244.336594 350.659271,244.250717 351.923737,243.934311 
M438.972992,237.744019 
	C438.760559,238.990158 438.548096,240.236313 438.308746,241.640289 
	C441.183990,241.285110 443.839233,240.957092 447.327423,240.526199 
	C444.535828,237.852859 443.383118,234.134018 438.801331,236.263184 
	C438.801331,236.263184 438.666992,236.667526 438.666992,236.667526 
	C438.666992,236.667526 439.025330,236.992950 438.972992,237.744019 
M464.145325,235.081863 
	C464.145325,235.081863 464.237030,235.127975 464.237030,235.127975 
	C464.237030,235.127975 463.965820,235.015396 463.738983,234.366379 
	C463.125000,233.334488 462.511017,232.302597 461.897064,231.270706 
	C461.551880,231.365067 461.206726,231.459427 460.861542,231.553772 
	C460.861542,235.754700 460.861542,239.955627 460.861542,244.156555 
	C461.255157,244.217590 461.648804,244.278625 462.042419,244.339661 
	C462.696289,241.218536 463.350159,238.097397 464.145325,235.081863 
M407.245056,207.253174 
	C402.478973,207.253174 397.712860,207.253174 392.946777,207.253174 
	C392.949280,207.671234 392.951813,208.089294 392.954315,208.507370 
	C395.647278,208.977554 398.325378,209.587692 401.037720,209.874908 
	C403.330475,210.117691 405.662842,209.986359 408.917603,210.025879 
	C415.946106,210.018021 422.974609,210.010147 430.760071,210.067657 
	C432.289398,211.391098 433.818726,212.714523 435.589783,214.247162 
	C435.724640,212.663330 435.865875,211.004684 436.005157,209.368698 
	C442.818817,208.564011 442.987427,208.386276 442.984711,202.024719 
	C442.984436,201.366577 442.953644,200.708435 442.960663,199.262314 
	C441.269409,197.846954 439.778656,195.792969 437.834686,195.182800 
	C435.559814,194.468750 432.890076,195.011978 430.391632,195.011230 
	C427.503540,195.010345 424.615448,195.011017 421.727356,195.011017 
	C421.746765,195.673691 421.766205,196.336365 421.785614,196.999039 
	C426.891937,196.999039 431.998871,197.044632 437.104309,196.977921 
	C439.328369,196.948868 441.175812,197.174179 441.035553,200.902008 
	C441.700287,205.717392 439.619141,207.603500 434.816223,207.100403 
	C432.907227,206.900452 430.920990,207.437592 428.042938,207.742920 
	C421.331268,207.722778 414.619568,207.702652 407.245056,207.253174 
M403.562805,118.559441 
	C399.795929,118.875267 396.029053,119.191093 392.262177,119.506927 
	C392.303772,119.853844 392.345367,120.200768 392.386963,120.547691 
	C396.437683,120.547691 400.488373,120.547691 405.403839,120.478889 
	C414.434601,120.522858 423.465363,120.566826 433.386078,120.891365 
	C436.288483,121.170647 439.190857,121.449936 443.443542,121.859154 
	C439.461517,118.747635 436.636597,116.899208 431.925446,118.855148 
	C422.680054,118.919281 413.434662,118.983414 403.562805,118.559441 
M343.016693,242.720718 
	C343.836304,246.415741 345.596619,245.027191 347.717987,243.622803 
	C345.155304,237.882126 342.691071,232.362045 340.226868,226.841965 
	C339.883698,227.003494 339.540558,227.165039 339.197418,227.326584 
	C341.398865,232.629715 343.600311,237.932861 345.801758,243.236008 
	C345.582458,243.390366 345.363159,243.544739 345.143890,243.699112 
	C344.420746,243.130432 343.697632,242.561752 342.959564,241.232620 
	C342.080566,238.751816 341.320679,236.218430 340.260834,233.817459 
	C339.866364,232.923813 338.690643,231.684082 338.012482,231.766388 
	C336.959900,231.894135 335.502289,232.815598 335.139008,233.756699 
	C333.776428,237.286713 332.787964,240.961136 331.659271,244.581451 
	C332.256012,244.785690 332.852753,244.989929 333.449524,245.194168 
	C334.269684,242.928879 335.089844,240.663605 336.005341,238.135071 
	C337.972168,239.212997 340.488708,240.592178 343.016693,242.720718 
M420.080994,155.127640 
	C421.419922,147.966431 421.055450,140.843918 420.814911,133.718597 
	C420.232574,133.723419 419.650238,133.728256 419.067902,133.733093 
	C419.067902,141.145584 419.067902,148.558090 419.022247,156.910568 
	C419.022247,168.970276 419.022247,181.029968 419.022247,193.089676 
	C419.679016,193.071884 420.335815,193.054077 420.992584,193.036285 
	C420.992584,182.603745 421.036285,172.170837 420.953064,161.738953 
	C420.937744,159.815811 420.408875,157.896774 420.080994,155.127640 
M367.176208,197.994400 
	C356.608765,202.034378 345.792572,201.588943 334.776123,199.672775 
	C336.460083,201.011856 338.222870,202.346786 340.006653,202.375519 
	C347.432037,202.495163 354.885590,202.496750 362.278778,201.910553 
	C364.284454,201.751526 366.114777,199.381271 368.596985,197.993256 
	C369.044861,197.677078 369.492737,197.360901 370.298431,196.403107 
	C371.536652,192.004456 373.592804,187.652115 373.844879,183.197647 
	C374.389404,173.576065 374.191193,163.897110 373.927826,154.251709 
	C373.798645,149.521423 372.845703,144.813644 372.265564,140.095673 
	C371.702271,140.158676 371.138977,140.221695 370.575684,140.284714 
	C370.775482,142.817093 371.034271,145.346436 371.165558,147.882370 
	C372.019043,164.371750 374.368439,180.961624 367.971191,197.480026 
	C367.971191,197.480026 367.976929,197.977585 367.176208,197.994400 
M348.296997,147.151840 
	C347.200439,149.403305 345.254608,151.618942 345.157806,153.912598 
	C344.786560,162.709122 344.687866,171.549362 345.198364,180.331970 
	C345.358704,183.090469 347.671753,185.766800 349.217285,188.350479 
	C349.423340,188.694901 350.917908,188.268570 350.428253,188.306412 
	C349.535522,184.633698 348.107819,181.457108 348.111908,178.282333 
	C348.125366,167.851776 348.658264,157.421890 349.653564,146.973511 
	C350.249420,146.604309 350.845306,146.235107 351.441162,145.865906 
	C351.223114,145.667465 350.837463,145.276245 350.811554,145.298782 
	C350.186920,145.841843 349.600739,146.429108 348.296997,147.151840 
M477.774780,199.789963 
	C478.175934,198.950897 478.922974,198.113480 478.927002,197.272522 
	C479.000977,181.799377 479.015045,166.325653 478.932068,150.852631 
	C478.925751,149.675903 478.097534,148.503571 477.651337,147.329193 
	C476.350739,148.480576 476.018433,149.378845 476.016357,150.277863 
	C475.981384,165.418579 475.960083,180.559509 476.029114,195.699966 
	C476.035645,197.136566 476.665131,198.570328 476.188660,200.011765 
	C471.456329,200.011765 466.723969,200.011765 461.991638,200.011765 
	C461.992554,200.647705 461.993439,201.283646 461.994354,201.919586 
	C466.356567,201.919586 470.721832,202.000153 475.077667,201.833649 
	C475.739258,201.808380 476.356964,200.636124 477.774780,199.789963 
M287.990143,159.532501 
	C287.266815,155.598862 289.580688,151.040512 285.717529,147.691132 
	C285.063263,159.884033 285.003571,171.994354 285.174133,184.101440 
	C285.188110,185.092575 286.770691,186.061600 287.990021,187.460297 
	C287.990021,177.725922 287.990021,169.123550 287.990143,159.532501 
M457.765686,131.018066 
	C456.086853,131.116821 454.407990,131.215576 452.729156,131.314316 
	C452.740173,131.790558 452.751190,132.266815 452.762207,132.743057 
	C454.279968,132.829514 455.797424,132.984634 457.315521,132.990753 
	C464.481506,133.019638 471.658752,133.248428 478.809662,132.919922 
	C483.082794,132.723602 484.359161,134.251282 484.097412,138.331680 
	C483.925934,141.004929 484.629333,143.734299 484.940918,146.438522 
	C485.629974,146.378830 486.319000,146.319122 487.008057,146.259415 
	C487.008057,142.701965 486.889496,139.139465 487.041412,135.588501 
	C487.192871,132.047958 485.514557,130.933640 482.193726,130.983841 
	C474.362823,131.102219 466.528839,131.015457 457.765686,131.018066 
M432.549683,111.413528 
	C433.421539,113.012489 434.293427,114.611450 435.416016,116.670189 
	C436.347046,109.961975 435.735168,109.115517 430.050140,109.043167 
	C423.751129,108.962997 417.450226,108.976334 411.150665,109.020393 
	C408.677948,109.037689 406.206604,109.248688 403.734619,109.371475 
	C403.759247,109.955193 403.783875,110.538918 403.808472,111.122643 
	C413.124420,111.122643 422.440369,111.122643 432.549683,111.413528 
M300.637207,200.032196 
	C292.676147,200.522018 284.715088,201.011826 276.754028,201.501648 
	C276.780853,201.972519 276.807678,202.443390 276.834503,202.914261 
	C286.985809,202.547226 297.227661,204.324722 307.281403,201.646301 
	C307.272644,201.101654 307.263885,200.557022 307.255157,200.012390 
	C305.348419,200.012390 303.441711,200.012390 300.637207,200.032196 
M280.518097,231.258881 
	C280.065582,230.003387 279.613098,228.747894 279.110657,227.353821 
	C279.023010,227.390533 278.216736,227.547729 278.201660,227.760910 
	C277.835052,232.939026 277.506561,238.121613 277.339294,243.308807 
	C277.325226,243.744904 278.727417,244.727631 279.069061,244.572128 
	C279.830078,244.225693 280.833221,243.339798 280.862366,242.637360 
	C281.010712,239.064804 280.879944,235.480667 280.518097,231.258881 
M285.510437,131.031189 
	C280.696655,131.143890 275.882874,131.256592 271.069122,131.369293 
	C271.094116,131.847046 271.119141,132.324814 271.144165,132.802567 
	C281.707245,132.802567 292.270325,132.802567 302.833435,132.802567 
	C302.860504,132.335709 302.887543,131.868835 302.914612,131.401978 
	C297.444214,131.278244 291.973785,131.154510 285.510437,131.031189 
M414.511047,220.027008 
	C419.781128,220.027008 425.051239,220.027008 430.321320,220.027008 
	C430.299561,219.570145 430.277802,219.113297 430.256042,218.656433 
	C420.748749,218.656433 411.241486,218.656433 401.734192,218.656433 
	C401.737366,219.113220 401.740509,219.570023 401.743652,220.026810 
	C405.668457,220.026810 409.593262,220.026810 414.511047,220.027008 
M392.979584,229.126541 
	C392.109161,228.742004 391.238770,228.357468 390.368347,227.972931 
	C390.073547,231.592880 389.616364,235.210022 389.553741,238.833984 
	C389.523224,240.597885 390.229828,242.374527 390.914215,245.624268 
	C391.834473,244.008682 392.904144,242.970901 392.960938,241.880402 
	C393.166656,237.928635 393.032471,233.959183 392.979584,229.126541 
M382.504242,235.211533 
	C382.082947,233.720322 381.661652,232.229111 381.175659,230.508881 
	C378.374115,232.644592 377.053894,241.726578 378.778381,243.718796 
	C379.143311,244.140366 380.061493,244.611374 380.377502,244.435532 
	C381.011627,244.082687 381.763519,243.338470 381.835022,242.686523 
	C382.084564,240.411896 382.064606,238.107712 382.504242,235.211533 
M289.783691,227.471664 
	C288.014648,233.197403 288.309723,238.763794 289.752319,244.241577 
	C290.663605,244.171478 291.574860,244.101364 292.486115,244.031250 
	C291.847107,238.444305 291.208130,232.857376 289.783691,227.471664 
M313.014191,182.051407 
	C313.014191,170.139221 313.014191,158.227036 313.014191,146.314835 
	C312.769287,146.319778 312.524384,146.324738 312.279480,146.329681 
	C312.279480,159.474777 312.279480,172.619858 312.279480,185.764954 
	C312.464417,185.769516 312.649384,185.774078 312.834320,185.778641 
	C312.894104,184.818787 312.953888,183.858917 313.014191,182.051407 
M366.983490,234.005142 
	C367.050629,235.861176 367.117737,237.717209 367.184875,239.573242 
	C367.880371,239.550629 368.575867,239.528015 369.271362,239.505386 
	C369.271362,235.479279 369.271362,231.453171 369.271362,227.427078 
	C368.759979,227.374329 368.248566,227.321579 367.737183,227.268845 
	C367.493713,229.238968 367.250214,231.209106 366.983490,234.005142 
M454.950989,241.646866 
	C454.697815,242.661850 454.444641,243.676819 454.162567,244.807739 
	C457.448212,243.604172 458.347107,232.795822 454.960175,227.758804 
	C454.960175,232.113037 454.960175,236.467285 454.950989,241.646866 
M428.645447,227.109360 
	C426.354187,227.517654 424.062927,227.925934 421.169586,228.441513 
	C422.497620,230.154953 423.160400,231.010040 423.449371,231.382889 
	C425.790680,230.783707 427.672241,230.296265 429.557098,229.821838 
	C430.964630,229.467529 432.376404,229.130020 433.786316,228.785034 
	C432.358917,228.220108 430.931488,227.655182 428.645447,227.109360 
M357.351837,131.294128 
	C352.158997,131.294128 346.966156,131.294128 341.773315,131.294128 
	C341.788940,131.821411 341.804565,132.348679 341.820190,132.875961 
	C347.345245,132.875961 352.870300,132.875961 358.395355,132.875961 
	C358.277679,132.446701 358.160004,132.017426 357.351837,131.294128 
M425.361084,244.944580 
	C427.011292,244.988052 428.725098,245.329727 430.294556,244.994797 
	C432.013580,244.627960 434.880310,243.790466 434.989014,242.886520 
	C435.254333,240.680557 434.215790,238.317780 433.589172,235.512253 
	C432.620270,238.949570 432.633545,242.551605 431.124908,243.379120 
	C428.988525,244.550995 425.729523,243.676315 422.727966,243.676315 
	C423.479309,244.112030 424.048370,244.442047 425.361084,244.944580 
M267.998596,176.296646 
	C267.998596,183.444458 267.998596,190.592270 267.998596,197.740082 
	C268.245850,197.734802 268.493103,197.729507 268.740356,197.724228 
	C268.740356,189.898010 268.740356,182.071777 268.740356,172.965363 
	C268.255096,174.654602 268.130310,175.089035 267.998596,176.296646 
M410.249084,239.286224 
	C409.378937,240.527863 408.508759,241.769485 407.429535,243.309464 
	C412.509399,241.052200 413.938263,236.899139 411.249207,233.256699 
	C411.030396,235.051224 410.811584,236.845734 410.249084,239.286224 
M310.105896,194.678864 
	C310.309082,195.629837 310.512268,196.580811 310.715485,197.531784 
	C311.102936,197.519669 311.490417,197.507553 311.877869,197.495438 
	C312.039124,196.206711 312.200348,194.917969 312.361603,193.629227 
	C311.673615,193.757904 310.985626,193.886581 310.105896,194.678864 
M367.155487,134.533981 
	C366.761932,134.463028 366.368408,134.392075 365.974854,134.321121 
	C366.274658,134.489441 366.574463,134.657761 367.155487,134.533981 
M384.500305,236.471420 
	C384.500305,236.471420 384.529846,236.451294 384.500305,236.471420 
M286.420624,234.501282 
	C286.420624,234.501282 286.510620,234.451691 286.420624,234.501282 
M370.561005,137.518402 
	C370.561005,137.518402 370.474243,137.565491 370.561005,137.518402 
M309.413116,199.475555 
	C309.413116,199.475555 309.511169,199.417953 309.413116,199.475555 
M410.503448,230.632233 
	C410.503448,230.632233 410.623871,230.413162 410.623871,230.413162 
	C410.623871,230.413162 410.385742,230.447357 410.503448,230.632233 
z"/>
<path fill="#3A26CF" opacity="1.000000" stroke="none" 
	d="
M193.001923,248.837570 
	C157.490906,248.894302 121.979881,248.951080 86.468864,249.007599 
	C83.315720,249.012619 80.162582,249.015930 76.321075,248.791992 
	C74.481682,248.043152 73.330658,247.522339 72.602921,246.987915 
	C89.871902,245.217682 106.717598,243.461029 123.227150,241.739441 
	C124.267761,236.136978 125.213318,230.840195 126.251419,225.561615 
	C126.651375,223.527939 127.815125,221.497665 127.680122,219.531113 
	C127.104057,211.139786 126.172562,202.772842 125.307823,193.739731 
	C132.920227,196.773483 139.380234,199.347992 146.738495,202.280472 
	C135.326294,193.951065 124.952980,186.379929 113.935661,178.338745 
	C116.418137,176.561142 117.928139,175.479889 119.438148,174.398621 
	C117.507477,174.121490 115.543747,174.097763 114.159859,174.981766 
	C109.102325,178.212402 104.092094,181.556015 99.339676,185.215073 
	C93.960197,189.356918 88.212273,193.565475 81.541412,193.728394 
	C71.095802,193.983505 60.607983,192.654053 50.147655,191.867752 
	C49.379608,191.810028 48.689178,190.719772 47.920509,189.778259 
	C47.218140,188.980621 46.557919,188.514282 45.934235,188.033295 
	C45.970768,188.018661 45.948532,188.094177 45.955765,187.708832 
	C45.904728,186.829590 45.963989,186.283432 45.770981,185.849442 
	C41.116890,175.384445 36.937267,164.804199 36.878628,153.076050 
	C36.875198,152.390533 35.767368,151.710510 35.101841,150.562790 
	C35.073048,144.063110 35.115898,138.028580 35.525860,131.880203 
	C35.891064,128.483475 35.889156,125.200600 35.924889,121.606834 
	C36.016552,120.883034 36.070576,120.470123 36.476562,119.953445 
	C37.887680,115.587959 38.946831,111.326233 40.273720,106.841583 
	C42.648624,103.342163 44.755791,100.065674 46.793018,96.787613 
	C46.723080,96.786041 46.717583,96.646233 47.071114,96.749077 
	C49.575214,94.834465 51.725792,92.817017 53.888130,90.844803 
	C53.899899,90.890053 53.806656,90.883110 54.147034,90.807922 
	C57.918423,86.577965 61.595768,85.084702 66.611511,88.599220 
	C68.643303,90.022896 71.551544,90.195763 74.374344,91.121399 
	C75.475494,92.892677 76.326401,94.452919 77.032288,96.076210 
	C77.667549,97.537064 79.029076,99.674873 78.504417,100.439079 
	C77.437347,101.993355 75.435226,103.136017 73.587303,103.850578 
	C72.124504,104.416206 69.647171,103.411995 68.774994,104.273651 
	C64.366974,108.628433 59.064327,108.811638 53.809227,107.940170 
	C53.582378,111.423485 52.563538,114.672348 53.368206,117.379120 
	C54.886440,122.486198 57.339863,127.334702 59.609642,132.194916 
	C64.477509,142.618332 71.433296,152.472168 67.990387,165.022415 
	C67.576782,166.530090 67.452049,168.116989 67.193428,169.667175 
	C67.640038,169.776901 68.086639,169.886627 68.533249,169.996338 
	C69.017906,168.566605 69.798637,167.164093 69.933151,165.702133 
	C70.383629,160.806335 70.603210,155.889297 71.299553,150.977173 
	C75.119743,149.371552 78.551575,147.769150 82.302803,146.093658 
	C83.057022,145.979858 83.491859,145.939163 84.124573,146.133514 
	C84.661850,145.769501 85.001236,145.170395 85.451279,144.550461 
	C85.561943,144.529617 85.643211,144.739670 85.976837,144.655182 
	C86.857559,143.348511 87.404648,142.126328 87.964806,140.940887 
	C87.977875,140.977615 87.903984,140.952667 88.259689,140.931061 
	C89.733177,139.549347 90.850967,138.189240 92.033310,136.617310 
	C92.270699,136.135315 92.517113,135.989532 93.166420,135.944626 
	C93.890991,135.481750 94.286255,135.042404 94.645126,134.560867 
	C94.608749,134.518677 94.643188,134.412720 94.991867,134.573212 
	C96.774185,133.698364 98.207832,132.663010 99.639183,131.585678 
	C99.636894,131.543686 99.668571,131.465775 100.075691,131.599182 
	C104.347267,131.137787 108.211716,130.542984 112.502670,129.968231 
	C115.946075,130.389282 118.962990,130.790268 122.611847,131.275238 
	C123.177132,130.873291 124.484154,129.991287 125.738274,129.039551 
	C127.142303,127.974052 128.498413,126.845406 129.289948,126.212410 
	C127.735191,123.938812 126.416237,122.010048 125.353699,119.951889 
	C125.647552,119.386971 125.684998,118.951431 125.722435,118.515900 
	C125.266258,118.783592 124.810081,119.051277 124.088486,119.527634 
	C123.219315,120.305008 122.610489,120.868423 122.012642,121.443260 
	C116.675476,126.575050 114.517326,125.774223 109.695168,119.986115 
	C106.878517,116.605255 104.739433,111.107376 98.480240,111.737022 
	C98.076523,111.777641 97.088104,109.432755 96.957962,108.138596 
	C96.527519,103.858269 97.201408,99.867989 94.691986,95.415070 
	C91.699402,90.104805 89.428001,83.361717 94.179825,76.872337 
	C98.919304,71.703323 103.384529,66.735184 107.796494,61.769520 
	C107.743248,61.772003 107.737595,61.665535 108.108994,61.763012 
	C110.655502,60.952820 112.830620,60.045151 115.462662,59.113037 
	C121.977455,60.047421 128.035309,61.006245 134.056183,61.965996 
	C134.019211,61.966919 134.031174,61.893917 134.042694,62.207504 
	C134.644958,62.991287 135.235687,63.461479 135.996857,64.247635 
	C141.006943,69.058891 143.731949,74.339409 144.195587,81.184479 
	C144.440216,84.796112 146.608047,88.395485 148.395096,91.739883 
	C149.448334,93.711021 151.455704,95.172325 153.084015,97.216370 
	C153.878815,97.845772 154.623550,98.121719 155.393433,98.498123 
	C155.418549,98.598579 155.232727,98.689987 155.315796,99.000664 
	C156.593246,99.263077 157.787643,99.214813 159.233856,99.118690 
	C159.653366,99.103752 159.821060,99.136665 160.064056,99.489113 
	C163.005722,102.238525 164.383942,99.619385 166.199295,97.983879 
	C166.194077,97.911629 166.063889,97.914886 165.586121,97.926514 
	C164.543625,97.958801 163.848694,97.982727 163.004395,97.687775 
	C162.636002,96.282295 162.416992,95.195686 162.403519,94.264839 
	C164.541473,91.157036 166.473892,87.893463 168.461853,84.603989 
	C168.517426,84.578094 168.631363,84.623398 168.974457,84.638733 
	C170.076920,83.647339 170.836288,82.640610 171.625748,81.634308 
	C171.655838,81.634735 171.668915,81.693481 171.954590,81.669189 
	C172.383850,81.317642 172.527405,80.990379 172.615082,80.597992 
	C172.559204,80.532860 172.628098,80.375656 172.968292,80.551720 
	C175.206436,79.486801 177.104355,78.245819 179.326736,76.851624 
	C186.494354,74.631210 193.337524,72.564003 201.522202,70.091545 
	C197.823151,70.091545 195.403854,70.091545 192.692429,69.965973 
	C192.620926,68.722420 192.465027,67.008873 193.127594,66.589996 
	C195.933762,64.815956 198.983170,63.426693 202.194824,62.173660 
	C208.554153,62.450520 214.662308,62.450520 220.770477,62.450520 
	C220.773605,62.007889 220.776733,61.565258 220.779861,61.122627 
	C219.835632,61.057487 218.891388,60.992348 217.753845,60.575745 
	C211.077835,59.823948 204.595169,59.423607 197.779190,59.042049 
	C196.633606,59.724789 195.821304,60.388752 195.003204,61.026707 
	C194.997391,61.000702 195.045547,61.023518 194.671310,60.998619 
	C192.846985,60.657471 191.396881,60.341225 189.974335,60.014580 
	C190.001877,60.004185 189.987442,60.061264 189.860138,59.759285 
	C188.698761,58.803074 187.664658,58.148846 186.613739,57.458591 
	C186.596924,57.422565 186.562073,57.351093 186.590515,57.064636 
	C186.292206,56.653946 185.965424,56.529716 185.739502,56.332573 
	C185.840332,56.259659 185.611038,56.356422 185.620880,56.068577 
	C185.301498,55.675961 184.972275,55.571190 184.625107,55.435722 
	C184.607147,55.405025 184.552185,55.359875 184.582092,55.072872 
	C184.282852,54.679489 183.953705,54.573112 183.616013,54.436028 
	C183.607468,54.405319 183.555328,54.368664 183.584595,54.080624 
	C183.284790,53.683052 182.955688,53.573524 182.615280,53.434509 
	C182.603958,53.405018 182.545212,53.381775 182.589905,53.031269 
	C181.402283,51.462246 180.169983,50.243725 178.965729,49.012558 
	C178.993805,48.999908 178.974579,49.058414 178.934082,48.727104 
	C178.226608,47.932449 177.559631,47.469109 176.677643,46.931679 
	C176.190659,46.679173 176.033966,46.428646 175.945892,45.758480 
	C172.919876,43.978802 169.940536,42.546654 166.689148,40.973549 
	C166.243378,40.256908 166.069672,39.681221 166.148972,38.956512 
	C166.452362,38.242237 166.502731,37.676979 166.553101,37.111725 
	C165.714645,37.768219 164.876205,38.424717 164.027985,39.047005 
	C164.018219,39.012791 164.087997,39.026699 163.781006,39.138306 
	C162.811829,39.972519 162.149673,40.695129 161.435562,41.400692 
	C161.383621,41.383644 161.430267,41.482536 161.109497,41.467903 
	C160.534592,42.004822 160.280472,42.556377 159.949051,43.324333 
	C159.691757,43.815086 159.439285,43.974903 158.945114,44.073830 
	C158.694290,44.210316 158.529419,44.319038 158.545715,44.371468 
	C158.610168,44.578861 158.731369,44.768627 158.786713,45.309235 
	C157.802597,46.579865 156.956650,47.632515 155.906311,48.408585 
	C152.876648,50.647198 142.606827,51.091618 141.389328,48.606926 
	C139.434814,44.618061 137.797089,40.211578 137.383667,35.852749 
	C137.206009,33.979675 140.429596,31.783993 142.436386,29.592321 
	C144.527771,28.975685 146.290710,28.501608 148.422546,28.022493 
	C149.528152,27.985111 150.264862,27.952765 151.266037,28.201824 
	C155.055481,29.076981 158.580475,29.670732 162.399353,30.435556 
	C169.793182,33.091770 176.893112,35.576916 184.195221,38.324883 
	C186.601349,39.721287 188.805328,40.854862 191.214981,42.252029 
	C193.612778,43.691517 195.804871,44.867409 198.163055,46.339821 
	C202.391434,49.539085 206.453735,52.441830 211.047226,55.724140 
	C212.435272,50.618279 212.880096,47.086506 208.336044,44.533035 
	C205.038620,42.680099 202.074799,40.233540 198.662018,37.901237 
	C196.228134,36.539017 194.094467,35.327236 191.616364,34.045490 
	C189.167892,33.002449 187.063843,32.029381 184.964783,31.029198 
	C184.969788,31.002083 184.928741,31.039013 185.041992,30.776535 
	C185.355682,29.995550 185.556122,29.477047 185.841431,28.899164 
	C185.926315,28.839785 186.095917,28.958754 186.095917,28.958754 
	C188.138733,29.313147 190.181534,29.667540 192.692688,30.442776 
	C198.109253,32.616234 203.057465,34.368851 208.222595,36.389305 
	C209.984055,37.090698 211.528564,37.524261 213.073090,37.957821 
	C213.073090,37.957821 213.005814,37.983719 213.026611,38.295296 
	C214.752853,39.712463 216.458282,40.818054 218.163712,41.923641 
	C218.163712,41.923641 218.060379,41.939777 218.161224,42.215256 
	C219.834183,43.692909 221.406281,44.895084 223.035736,46.437641 
	C224.175964,47.374180 225.258865,47.970337 226.341751,48.566490 
	C226.341751,48.566490 226.354095,48.625633 226.274841,49.001625 
	C226.829056,49.907238 227.462524,50.436852 228.095978,50.966469 
	C228.095978,50.966473 228.023621,50.988152 228.124222,51.195290 
	C228.514648,51.599117 228.804474,51.795811 229.094299,51.992508 
	C229.094299,51.992512 229.018524,51.982689 229.046600,52.305882 
	C230.752716,55.082859 232.430756,57.536640 234.108780,59.990425 
	C234.108780,59.990425 234.027176,59.985786 234.026306,60.332634 
	C234.605835,62.124481 235.186234,63.569489 235.766632,65.014496 
	C233.833755,71.692940 231.561386,78.296265 230.062485,85.070724 
	C228.531555,91.989914 221.299225,100.359344 214.019638,101.870331 
	C214.019638,98.853279 214.094406,95.952385 213.998474,93.057144 
	C213.903732,90.197693 213.636414,87.343964 212.822067,84.495956 
	C212.400162,91.839523 213.596146,99.371254 209.120224,106.566612 
	C211.010529,113.584808 213.224579,121.670059 215.341339,129.780701 
	C215.751511,131.352280 215.945160,133.021469 215.959549,134.648117 
	C216.021820,141.685059 215.707458,148.735641 216.034760,155.757736 
	C216.678589,169.570847 213.343887,182.214844 206.468140,194.193466 
	C200.382126,204.796219 194.903519,215.747620 189.033173,226.777267 
	C186.155807,225.511871 182.970291,224.110947 179.784790,222.710037 
	C179.555313,223.052292 179.325836,223.394547 179.096359,223.736801 
	C186.944031,228.388184 193.382004,234.390442 197.870102,242.999985 
	C196.303055,245.384995 194.652481,247.111282 193.001923,248.837570 
M175.013657,136.602417 
	C175.013657,136.602417 175.008194,136.603134 175.599213,137.174698 
	C175.737015,137.477402 175.838043,137.804138 176.017883,138.079361 
	C184.451218,150.985092 187.397324,165.095596 185.029373,180.272186 
	C183.880386,187.636169 187.378967,193.578705 190.329422,199.794144 
	C190.769211,198.499725 190.709412,197.296646 190.520050,196.114304 
	C189.722183,191.132309 187.704239,186.013687 188.285416,181.205246 
	C190.010269,166.934799 189.347916,153.394928 181.360596,140.733215 
	C180.869263,140.158264 180.377930,139.583328 179.456421,138.861832 
	C179.185547,138.683655 179.027267,138.434082 178.927414,137.403717 
	C177.051819,133.598083 174.000687,131.477966 170.288406,130.305862 
	C169.933365,130.730682 169.578339,131.155502 169.223312,131.580322 
	C170.851898,133.034973 172.480499,134.489624 174.611832,136.158340 
	C174.738968,136.288773 174.866104,136.419205 175.013657,136.602417 
M224.316132,60.527950 
	C224.119843,60.539234 223.923569,60.550518 223.727280,60.561802 
	C223.857986,60.618710 223.988708,60.675621 224.316132,60.527950 
M167.565948,95.518120 
	C167.565948,95.518120 167.479416,95.566498 167.565948,95.518120 
z"/>
<path fill="#D7D4ED" opacity="1.000000" stroke="none" 
	d="
M72.179626,247.001526 
	C73.330658,247.522339 74.481682,248.043152 75.858337,248.817841 
	C87.662376,256.156860 100.407478,259.902954 113.693054,262.913452 
	C113.487740,265.689911 113.248062,267.753479 113.008385,269.817047 
	C101.674484,270.299652 91.496117,266.043396 81.439560,261.729584 
	C64.788910,254.587189 50.308220,244.207550 38.239925,230.681015 
	C27.045277,218.133698 18.789402,203.798370 12.989424,187.980484 
	C6.562339,170.452316 4.506231,152.246750 6.201978,133.932175 
	C8.263627,111.665756 15.392790,90.854362 29.210510,72.144547 
	C29.731974,71.448257 29.872961,71.186188 29.957443,70.893715 
	C30.614155,70.112907 31.270868,69.332108 32.227734,68.121124 
	C32.734375,67.452774 32.877445,67.181198 32.957092,66.876205 
	C33.943905,65.771942 34.930714,64.667671 36.219814,63.133953 
	C36.725491,62.481712 36.864468,62.224167 36.939041,61.931862 
	C36.939041,61.931862 36.996941,61.997978 37.181885,61.850842 
	C37.564003,61.434921 37.761173,61.166138 37.958344,60.897354 
	C41.051327,57.663647 44.144314,54.429939 47.781078,50.957802 
	C48.529945,50.440308 48.735039,50.161247 48.940132,49.882187 
	C48.940132,49.882187 48.963470,49.961414 49.141792,49.870144 
	C49.609425,49.642197 49.829899,49.432972 49.981537,49.151199 
	C51.080879,48.160309 52.180218,47.169418 53.946938,46.071548 
	C55.394253,45.264969 56.174191,44.565369 56.954124,43.865768 
	C56.954514,43.515251 57.104465,43.248951 57.854622,42.929115 
	C58.596848,42.652203 58.823112,42.442543 58.984058,42.162384 
	C59.427849,41.819294 59.871639,41.476204 60.809368,40.961571 
	C61.598679,40.650009 61.826077,40.437309 61.985500,40.151936 
	C62.429867,39.812054 62.874229,39.472168 63.811275,38.961269 
	C64.598221,38.650162 64.825188,38.438053 64.984856,38.153931 
	C64.984856,38.153931 65.408821,37.990536 66.001389,37.977287 
	C67.374344,37.273331 68.154716,36.582626 68.935097,35.891922 
	C68.935097,35.891922 68.961464,35.971092 69.139778,35.877033 
	C69.607193,35.646309 69.829422,35.438217 69.984779,35.158703 
	C69.984779,35.158703 70.407097,34.992226 70.983597,34.980988 
	C72.372147,34.362198 73.184212,33.754646 73.996269,33.147095 
	C73.996269,33.147095 74.414894,32.988297 74.988159,32.978813 
	C76.372803,32.362907 77.184196,31.756485 77.995583,31.150063 
	C77.995583,31.150063 78.415825,30.992239 79.033295,30.978973 
	C83.099213,29.359903 86.547653,27.754097 89.996101,26.148293 
	C89.996101,26.148293 90.415649,25.989164 91.055153,25.983648 
	C95.127670,24.706440 98.560692,23.434746 101.993706,22.163054 
	C102.422554,22.099518 102.851395,22.035982 103.846695,22.193298 
	C108.856659,22.206518 114.087036,20.665293 113.839622,28.443691 
	C101.851753,30.704056 90.673225,34.133156 79.821976,39.479641 
	C62.872448,47.830784 49.295639,59.788055 37.938904,74.573013 
	C28.619976,86.705017 22.081591,100.463966 18.280628,115.043472 
	C14.217661,130.627960 13.370354,146.647446 15.740133,162.964859 
	C18.355309,180.971939 25.011019,197.247299 34.848679,212.009964 
	C44.429947,226.387863 57.182503,238.059433 72.179626,247.001526 
z"/>
<path fill="#E4E2F3" opacity="1.000000" stroke="none" 
	d="
M151.001572,27.920418 
	C150.264862,27.952765 149.528152,27.985111 148.111389,27.859539 
	C145.610748,27.481693 143.790161,27.261761 141.504150,27.015945 
	C135.360458,26.932352 129.682159,26.874645 124.003151,26.392357 
	C124.002617,23.700809 124.002792,21.433844 124.002975,19.166880 
	C136.176193,18.559935 148.276855,18.860891 160.385849,22.406162 
	C157.417480,24.478062 154.209534,26.199242 151.001572,27.920418 
z"/>
<path fill="#131313" opacity="1.000000" stroke="none" 
	d="
M477.005432,200.005417 
	C476.665131,198.570328 476.035645,197.136566 476.029114,195.699966 
	C475.960083,180.559509 475.981384,165.418579 476.016357,150.277863 
	C476.018433,149.378845 476.350739,148.480576 477.651337,147.329193 
	C478.097534,148.503571 478.925751,149.675903 478.932068,150.852631 
	C479.015045,166.325653 479.000977,181.799377 478.927002,197.272522 
	C478.922974,198.113480 478.175934,198.950897 477.387390,199.894989 
	C477.000000,200.000000 477.005432,200.005417 477.005432,200.005417 
z"/>
<path fill="#131313" opacity="1.000000" stroke="none" 
	d="
M348.991577,146.991745 
	C348.658264,157.421890 348.125366,167.851776 348.111908,178.282333 
	C348.107819,181.457108 349.535522,184.633698 350.428253,188.306412 
	C350.917908,188.268570 349.423340,188.694901 349.217285,188.350479 
	C347.671753,185.766800 345.358704,183.090469 345.198364,180.331970 
	C344.687866,171.549362 344.786560,162.709122 345.157806,153.912598 
	C345.254608,151.618942 347.200439,149.403305 348.648499,147.075897 
	C349.000000,146.999969 348.991577,146.991745 348.991577,146.991745 
z"/>
<path fill="#131313" opacity="1.000000" stroke="none" 
	d="
M367.983124,196.982590 
	C374.368439,180.961624 372.019043,164.371750 371.165558,147.882370 
	C371.034271,145.346436 370.775482,142.817093 370.575684,140.284714 
	C371.138977,140.221695 371.702271,140.158676 372.265564,140.095673 
	C372.845703,144.813644 373.798645,149.521423 373.927826,154.251709 
	C374.191193,163.897110 374.389404,173.576065 373.844879,183.197647 
	C373.592804,187.652115 371.536652,192.004456 369.794250,196.708923 
	C368.854401,197.004028 368.418762,196.993317 367.983124,196.982590 
z"/>
<path fill="#131313" opacity="1.000000" stroke="none" 
	d="
M287.990082,160.026840 
	C287.990021,169.123550 287.990021,177.725922 287.990021,187.460297 
	C286.770691,186.061600 285.188110,185.092575 285.174133,184.101440 
	C285.003571,171.994354 285.063263,159.884033 285.717529,147.691132 
	C289.580688,151.040512 287.266815,155.598862 287.990082,160.026840 
z"/>
<path fill="#3A26CF" opacity="1.000000" stroke="none" 
	d="
M224.056290,244.901810 
	C227.788681,245.265579 231.522797,245.612686 235.252716,246.000214 
	C237.091965,246.191299 238.923462,246.457077 240.758484,246.689056 
	C240.750153,247.418442 240.741837,248.147827 240.733505,248.877213 
	C230.128967,248.909409 219.524445,248.941589 208.474167,248.525299 
	C209.817429,247.054718 211.517609,245.418213 213.414749,245.143890 
	C216.900726,244.639893 220.502686,244.938034 224.056290,244.901810 
z"/>
<path fill="#1A1A1A" opacity="1.000000" stroke="none" 
	d="
M458.230896,131.014862 
	C466.528839,131.015457 474.362823,131.102219 482.193726,130.983841 
	C485.514557,130.933640 487.192871,132.047958 487.041412,135.588501 
	C486.889496,139.139465 487.008057,142.701965 487.008057,146.259415 
	C486.319000,146.319122 485.629974,146.378830 484.940918,146.438522 
	C484.629333,143.734299 483.925934,141.004929 484.097412,138.331680 
	C484.359161,134.251282 483.082794,132.723602 478.809662,132.919922 
	C471.658752,133.248428 464.481506,133.019638 457.315521,132.990753 
	C455.797424,132.984634 454.279968,132.829514 452.762207,132.743057 
	C452.751190,132.266815 452.740173,131.790558 452.729156,131.314316 
	C454.407990,131.215576 456.086853,131.116821 458.230896,131.014862 
z"/>
<path fill="#E0DEF2" opacity="1.000000" stroke="none" 
	d="
M123.558174,19.089420 
	C124.002792,21.433844 124.002617,23.700809 123.591904,26.479004 
	C120.130455,27.356026 117.079544,27.721815 114.028625,28.087605 
	C114.087036,20.665293 108.856659,22.206518 104.167862,22.131680 
	C110.319511,20.903461 116.716438,19.957710 123.558174,19.089420 
z"/>
<path fill="#9A90E4" opacity="1.000000" stroke="none" 
	d="
M151.266037,28.201824 
	C154.209534,26.199242 157.417480,24.478062 160.800903,22.453690 
	C168.995438,20.271740 175.171188,26.199427 182.503006,27.255121 
	C183.606079,27.413950 184.657227,27.933393 185.914154,28.622389 
	C186.095917,28.958754 185.926315,28.839785 185.461685,28.911583 
	C183.971664,28.972389 182.946274,28.961395 181.592316,28.781151 
	C178.344086,27.547832 175.408691,26.524847 172.507843,25.411795 
	C164.576843,22.368696 161.963257,23.573957 162.105453,30.264484 
	C158.580475,29.670732 155.055481,29.076981 151.266037,28.201824 
z"/>
<path fill="#4E3CD2" opacity="1.000000" stroke="none" 
	d="
M223.811157,244.569794 
	C220.502686,244.938034 216.900726,244.639893 213.414749,245.143890 
	C211.517609,245.418213 209.817429,247.054718 208.009277,248.457520 
	C203.302124,248.884109 198.614105,248.930023 193.464005,248.906754 
	C194.652481,247.111282 196.303055,245.384995 198.012817,243.315933 
	C201.048355,242.980728 204.032227,242.855789 206.999405,243.024475 
	C212.526749,243.338699 218.044373,243.823807 223.811157,244.569794 
z"/>
<path fill="#E4E2F3" opacity="1.000000" stroke="none" 
	d="
M144.087585,266.035431 
	C143.062469,267.021545 142.139084,268.702637 140.994141,268.870239 
	C136.657608,269.505005 132.249298,269.649200 127.382416,269.567566 
	C126.266045,267.498718 125.635101,265.839294 125.004150,264.179840 
	C130.368073,264.131073 135.731979,264.082275 141.704956,264.359222 
	C142.905197,265.135101 143.496399,265.585266 144.087585,266.035431 
z"/>
<path fill="#E0DEF2" opacity="1.000000" stroke="none" 
	d="
M124.585854,264.100525 
	C125.635101,265.839294 126.266045,267.498718 126.950172,269.492676 
	C122.644310,269.873444 118.285271,269.919678 113.467308,269.891479 
	C113.248062,267.753479 113.487740,265.689911 113.882591,263.269165 
	C117.414360,263.281708 120.790962,263.651459 124.585854,264.100525 
z"/>
<path fill="#252525" opacity="1.000000" stroke="none" 
	d="
M368.025604,198.025925 
	C366.114777,199.381271 364.284454,201.751526 362.278778,201.910553 
	C354.885590,202.496750 347.432037,202.495163 340.006653,202.375519 
	C338.222870,202.346786 336.460083,201.011856 334.776123,199.672775 
	C345.792572,201.588943 356.608765,202.034378 367.588928,197.998077 
	C368.001678,198.001770 368.025604,198.025925 368.025604,198.025925 
z"/>
<path fill="#252525" opacity="1.000000" stroke="none" 
	d="
M432.153015,111.268082 
	C422.440369,111.122643 413.124420,111.122643 403.808472,111.122643 
	C403.783875,110.538918 403.759247,109.955193 403.734619,109.371475 
	C406.206604,109.248688 408.677948,109.037689 411.150665,109.020393 
	C417.450226,108.976334 423.751129,108.962997 430.050140,109.043167 
	C435.735168,109.115517 436.347046,109.961975 435.416016,116.670189 
	C434.293427,114.611450 433.421539,113.012489 432.153015,111.268082 
z"/>
<path fill="#1A1A1A" opacity="1.000000" stroke="none" 
	d="
M420.117004,155.975845 
	C420.408875,157.896774 420.937744,159.815811 420.953064,161.738953 
	C421.036285,172.170837 420.992584,182.603745 420.992584,193.036285 
	C420.335815,193.054077 419.679016,193.071884 419.022247,193.089676 
	C419.022247,181.029968 419.022247,168.970276 419.307007,156.446411 
	C419.766815,155.980118 419.941925,155.977982 420.117004,155.975845 
z"/>
<path fill="#1A1A1A" opacity="1.000000" stroke="none" 
	d="
M301.086090,200.022293 
	C303.441711,200.012390 305.348419,200.012390 307.255157,200.012390 
	C307.263885,200.557022 307.272644,201.101654 307.281403,201.646301 
	C297.227661,204.324722 286.985809,202.547226 276.834503,202.914261 
	C276.807678,202.443390 276.780853,201.972519 276.754028,201.501648 
	C284.715088,201.011826 292.676147,200.522018 301.086090,200.022293 
z"/>
<path fill="#252525" opacity="1.000000" stroke="none" 
	d="
M343.005249,241.971359 
	C340.488708,240.592178 337.972168,239.212997 336.005341,238.135071 
	C335.089844,240.663605 334.269684,242.928879 333.449524,245.194168 
	C332.852753,244.989929 332.256012,244.785690 331.659271,244.581451 
	C332.787964,240.961136 333.776428,237.286713 335.139008,233.756699 
	C335.502289,232.815598 336.959900,231.894135 338.012482,231.766388 
	C338.690643,231.684082 339.866364,232.923813 340.260834,233.817459 
	C341.320679,236.218430 342.080566,238.751816 342.981506,241.617432 
	C343.003448,242.002228 343.005249,241.971359 343.005249,241.971359 
z"/>
<path fill="#404040" opacity="1.000000" stroke="none" 
	d="
M280.682495,231.579727 
	C280.879944,235.480667 281.010712,239.064804 280.862366,242.637360 
	C280.833221,243.339798 279.830078,244.225693 279.069061,244.572128 
	C278.727417,244.727631 277.325226,243.744904 277.339294,243.308807 
	C277.506561,238.121613 277.835052,232.939026 278.201660,227.760910 
	C278.216736,227.547729 279.023010,227.390533 279.110657,227.353821 
	C279.613098,228.747894 280.065582,230.003387 280.682495,231.579727 
z"/>
<path fill="#252525" opacity="1.000000" stroke="none" 
	d="
M286.006897,131.030975 
	C291.973785,131.154510 297.444214,131.278244 302.914612,131.401978 
	C302.887543,131.868835 302.860504,132.335709 302.833435,132.802567 
	C292.270325,132.802567 281.707245,132.802567 271.144165,132.802567 
	C271.119141,132.324814 271.094116,131.847046 271.069122,131.369293 
	C275.882874,131.256592 280.696655,131.143890 286.006897,131.030975 
z"/>
<path fill="#252525" opacity="1.000000" stroke="none" 
	d="
M414.014557,220.026917 
	C409.593262,220.026810 405.668457,220.026810 401.743652,220.026810 
	C401.740509,219.570023 401.737366,219.113220 401.734192,218.656433 
	C411.241486,218.656433 420.748749,218.656433 430.256042,218.656433 
	C430.277802,219.113297 430.299561,219.570145 430.321320,220.027008 
	C425.051239,220.027008 419.781128,220.027008 414.014557,220.026917 
z"/>
<path fill="#2E2E2E" opacity="1.000000" stroke="none" 
	d="
M393.003082,229.561462 
	C393.032471,233.959183 393.166656,237.928635 392.960938,241.880402 
	C392.904144,242.970901 391.834473,244.008682 390.914215,245.624268 
	C390.229828,242.374527 389.523224,240.597885 389.553741,238.833984 
	C389.616364,235.210022 390.073547,231.592880 390.368347,227.972931 
	C391.238770,228.357468 392.109161,228.742004 393.003082,229.561462 
z"/>
<path fill="#8174DF" opacity="1.000000" stroke="none" 
	d="
M432.496124,120.610794 
	C423.465363,120.566826 414.434601,120.522858 404.960541,120.254211 
	C404.407898,119.702202 404.298584,119.374878 404.189270,119.047546 
	C413.434662,118.983414 422.680054,118.919281 432.311859,119.184128 
	C432.630890,119.879005 432.563507,120.244896 432.496124,120.610794 
z"/>
<path fill="#515152" opacity="1.000000" stroke="none" 
	d="
M382.325684,235.513153 
	C382.064606,238.107712 382.084564,240.411896 381.835022,242.686523 
	C381.763519,243.338470 381.011627,244.082687 380.377502,244.435532 
	C380.061493,244.611374 379.143311,244.140366 378.778381,243.718796 
	C377.053894,241.726578 378.374115,232.644592 381.175659,230.508881 
	C381.661652,232.229111 382.082947,233.720322 382.325684,235.513153 
z"/>
<path fill="#252525" opacity="1.000000" stroke="none" 
	d="
M428.969940,207.639160 
	C430.920990,207.437592 432.907227,206.900452 434.816223,207.100403 
	C439.619141,207.603500 441.700287,205.717392 441.361053,200.463837 
	C442.103363,200.033875 442.520172,200.042084 442.936981,200.050293 
	C442.953644,200.708435 442.984436,201.366577 442.984711,202.024719 
	C442.987427,208.386276 442.818817,208.564011 436.005157,209.368698 
	C435.865875,211.004684 435.724640,212.663330 435.589783,214.247162 
	C433.818726,212.714523 432.289398,211.391098 430.302185,209.722168 
	C429.552856,208.797501 429.261383,208.218338 428.969940,207.639160 
z"/>
<path fill="#252525" opacity="1.000000" stroke="none" 
	d="
M290.176422,227.371048 
	C291.208130,232.857376 291.847107,238.444305 292.486115,244.031250 
	C291.574860,244.101364 290.663605,244.171478 289.752319,244.241577 
	C288.309723,238.763794 288.014648,233.197403 290.176422,227.371048 
z"/>
<path fill="#131313" opacity="1.000000" stroke="none" 
	d="
M313.013916,182.475220 
	C312.953888,183.858917 312.894104,184.818787 312.834320,185.778641 
	C312.649384,185.774078 312.464417,185.769516 312.279480,185.764954 
	C312.279480,172.619858 312.279480,159.474777 312.279480,146.329681 
	C312.524384,146.324738 312.769287,146.319778 313.014191,146.314835 
	C313.014191,158.227036 313.014191,170.139221 313.013916,182.475220 
z"/>
<path fill="#131313" opacity="1.000000" stroke="none" 
	d="
M442.948822,199.656311 
	C442.520172,200.042084 442.103363,200.033875 441.374634,200.037674 
	C441.175812,197.174179 439.328369,196.948868 437.104309,196.977921 
	C431.998871,197.044632 426.891937,196.999039 421.785614,196.999039 
	C421.766205,196.336365 421.746765,195.673691 421.727356,195.011017 
	C424.615448,195.011017 427.503540,195.010345 430.391632,195.011230 
	C432.890076,195.011978 435.559814,194.468750 437.834686,195.182800 
	C439.778656,195.792969 441.269409,197.846954 442.948822,199.656311 
z"/>
<path fill="#515152" opacity="1.000000" stroke="none" 
	d="
M428.506439,207.691040 
	C429.261383,208.218338 429.552856,208.797501 429.923706,209.689484 
	C422.974609,210.010147 415.946106,210.018021 408.404053,209.636017 
	C407.896301,208.724930 407.902100,208.203720 407.907898,207.682510 
	C414.619568,207.702652 421.331268,207.722778 428.506439,207.691040 
z"/>
<path fill="#252525" opacity="1.000000" stroke="none" 
	d="
M420.098999,155.551743 
	C419.941925,155.977982 419.766815,155.980118 419.329834,155.976410 
	C419.067902,148.558090 419.067902,141.145584 419.067902,133.733093 
	C419.650238,133.728256 420.232574,133.723419 420.814911,133.718597 
	C421.055450,140.843918 421.419922,147.966431 420.098999,155.551743 
z"/>
<path fill="#515152" opacity="1.000000" stroke="none" 
	d="
M464.004059,234.976273 
	C463.350159,238.097397 462.696289,241.218536 462.042419,244.339661 
	C461.648804,244.278625 461.255157,244.217590 460.861542,244.156555 
	C460.861542,239.955627 460.861542,235.754700 460.861542,231.553772 
	C461.206726,231.459427 461.551880,231.365067 461.897064,231.270706 
	C462.511017,232.302597 463.125000,233.334488 463.865540,234.684113 
	C463.992126,235.001846 464.004059,234.976273 464.004059,234.976273 
z"/>
<path fill="#515152" opacity="1.000000" stroke="none" 
	d="
M366.995117,233.592194 
	C367.250214,231.209106 367.493713,229.238968 367.737183,227.268845 
	C368.248566,227.321579 368.759979,227.374329 369.271362,227.427078 
	C369.271362,231.453171 369.271362,235.479279 369.271362,239.505386 
	C368.575867,239.528015 367.880371,239.550629 367.184875,239.573242 
	C367.117737,237.717209 367.050629,235.861176 366.995117,233.592194 
z"/>
<path fill="#252525" opacity="1.000000" stroke="none" 
	d="
M407.576477,207.467834 
	C407.902100,208.203720 407.896301,208.724930 407.934082,209.633362 
	C405.662842,209.986359 403.330475,210.117691 401.037720,209.874908 
	C398.325378,209.587692 395.647278,208.977554 392.954315,208.507370 
	C392.951813,208.089294 392.949280,207.671234 392.946777,207.253174 
	C397.712860,207.253174 402.478973,207.253174 407.576477,207.467834 
z"/>
<path fill="#515152" opacity="1.000000" stroke="none" 
	d="
M439.021667,236.004532 
	C443.383118,234.134018 444.535828,237.852859 447.327423,240.526199 
	C443.839233,240.957092 441.183990,241.285110 438.308746,241.640289 
	C438.548096,240.236313 438.760559,238.990158 438.985474,237.376892 
	C438.997986,237.009766 438.977600,237.035172 439.212158,236.962494 
	C439.524780,236.745941 439.696106,236.502640 439.665863,236.474289 
	C439.460693,236.281891 439.213043,236.134888 438.988342,235.983398 
	C438.997620,235.993561 439.021667,236.004532 439.021667,236.004532 
z"/>
<path fill="#2E2E2E" opacity="1.000000" stroke="none" 
	d="
M454.955566,241.234192 
	C454.960175,236.467285 454.960175,232.113037 454.960175,227.758804 
	C458.347107,232.795822 457.448212,243.604172 454.162567,244.807739 
	C454.444641,243.676819 454.697815,242.661850 454.955566,241.234192 
z"/>
<path fill="#404040" opacity="1.000000" stroke="none" 
	d="
M429.074768,227.099808 
	C430.931488,227.655182 432.358917,228.220108 433.786316,228.785034 
	C432.376404,229.130020 430.964630,229.467529 429.557098,229.821838 
	C427.672241,230.296265 425.790680,230.783707 423.449371,231.382889 
	C423.160400,231.010040 422.497620,230.154953 421.169586,228.441513 
	C424.062927,227.925934 426.354187,227.517654 429.074768,227.099808 
z"/>
<path fill="#1A1A1A" opacity="1.000000" stroke="none" 
	d="
M357.697083,131.441147 
	C358.160004,132.017426 358.277679,132.446701 358.395355,132.875961 
	C352.870300,132.875961 347.345245,132.875961 341.820190,132.875961 
	C341.804565,132.348679 341.788940,131.821411 341.773315,131.294128 
	C346.966156,131.294128 352.158997,131.294128 357.697083,131.441147 
z"/>
<path fill="#2E2E2E" opacity="1.000000" stroke="none" 
	d="
M350.910950,243.907730 
	C350.910950,238.370667 350.910950,232.833603 350.910950,227.533585 
	C353.350494,228.647186 354.231049,238.169876 351.473755,243.984207 
	C351.023743,244.034103 350.910950,243.907730 350.910950,243.907730 
z"/>
<path fill="#1A1A1A" opacity="1.000000" stroke="none" 
	d="
M342.988953,241.997650 
	C343.697632,242.561752 344.420746,243.130432 345.143890,243.699112 
	C345.363159,243.544739 345.582458,243.390366 345.801758,243.236008 
	C343.600311,237.932861 341.398865,232.629715 339.197418,227.326584 
	C339.540558,227.165039 339.883698,227.003494 340.226868,226.841965 
	C342.691071,232.362045 345.155304,237.882126 347.717987,243.622803 
	C345.596619,245.027191 343.836304,246.415741 343.010986,242.346039 
	C343.005249,241.971359 343.003448,242.002228 342.988953,241.997650 
z"/>
<path fill="#404040" opacity="1.000000" stroke="none" 
	d="
M424.989258,244.858307 
	C424.048370,244.442047 423.479309,244.112030 422.727966,243.676315 
	C425.729523,243.676315 428.988525,244.550995 431.124908,243.379120 
	C432.633545,242.551605 432.620270,238.949570 433.589172,235.512253 
	C434.215790,238.317780 435.254333,240.680557 434.989014,242.886520 
	C434.880310,243.790466 432.013580,244.627960 430.294556,244.994797 
	C428.725098,245.329727 427.011292,244.988052 424.989258,244.858307 
z"/>
<path fill="#404040" opacity="1.000000" stroke="none" 
	d="
M403.876038,118.803497 
	C404.298584,119.374878 404.407898,119.702202 404.528168,120.288605 
	C400.488373,120.547691 396.437683,120.547691 392.386963,120.547691 
	C392.345367,120.200768 392.303772,119.853844 392.262177,119.506927 
	C396.029053,119.191093 399.795929,118.875267 403.876038,118.803497 
z"/>
<path fill="#131313" opacity="1.000000" stroke="none" 
	d="
M476.997498,199.997192 
	C476.356964,200.636124 475.739258,201.808380 475.077667,201.833649 
	C470.721832,202.000153 466.356567,201.919586 461.994354,201.919586 
	C461.993439,201.283646 461.992554,200.647705 461.991638,200.011765 
	C466.723969,200.011765 471.456329,200.011765 476.597046,200.008591 
	C477.005432,200.005417 477.000000,200.000000 476.997498,199.997192 
z"/>
<path fill="#8174DF" opacity="1.000000" stroke="none" 
	d="
M208.005676,36.121468 
	C203.057465,34.368851 198.109253,32.616234 193.093201,30.513268 
	C197.887680,31.539204 202.750015,32.915489 207.811371,34.904083 
	C208.008835,35.718086 208.007248,35.919777 208.005676,36.121468 
z"/>
<path fill="#060606" opacity="1.000000" stroke="none" 
	d="
M268.002045,175.910065 
	C268.130310,175.089035 268.255096,174.654602 268.740356,172.965363 
	C268.740356,182.071777 268.740356,189.898010 268.740356,197.724228 
	C268.493103,197.729507 268.245850,197.734802 267.998596,197.740082 
	C267.998596,190.592270 267.998596,183.444458 268.002045,175.910065 
z"/>
<path fill="#404040" opacity="1.000000" stroke="none" 
	d="
M432.941101,120.751083 
	C432.563507,120.244896 432.630890,119.879005 432.767883,119.241432 
	C436.636597,116.899208 439.461517,118.747635 443.443542,121.859154 
	C439.190857,121.449936 436.288483,121.170647 432.941101,120.751083 
z"/>
<path fill="#2E2E2E" opacity="1.000000" stroke="none" 
	d="
M446.091400,231.916595 
	C447.966858,235.516083 449.935242,239.073288 451.614166,242.762207 
	C451.856323,243.294235 450.706665,244.459732 450.236694,245.270706 
	C448.695618,240.726013 447.350342,236.758636 446.011780,232.386063 
	C446.018494,231.980865 446.091400,231.916595 446.091400,231.916595 
z"/>
<path fill="#2E2E2E" opacity="1.000000" stroke="none" 
	d="
M410.420929,238.963242 
	C410.811584,236.845734 411.030396,235.051224 411.242554,233.255783 
	C413.938263,236.899139 412.509399,241.052200 407.429535,243.309464 
	C408.508759,241.769485 409.378937,240.527863 410.420929,238.963242 
z"/>
<path fill="#E0DEF2" opacity="1.000000" stroke="none" 
	d="
M89.614822,26.082150 
	C86.547653,27.754097 83.099213,29.359903 79.256882,30.959280 
	C82.319847,29.307238 85.776688,27.661621 89.614822,26.082150 
z"/>
<path fill="#E0DEF2" opacity="1.000000" stroke="none" 
	d="
M101.601990,22.097179 
	C98.560692,23.434746 95.127670,24.706440 91.278786,25.965595 
	C94.312035,24.645805 97.761162,23.338554 101.601990,22.097179 
z"/>
<path fill="#060606" opacity="1.000000" stroke="none" 
	d="
M399.105438,240.902649 
	C401.313446,241.723175 403.521454,242.543716 406.773376,243.752182 
	C402.932709,245.449341 400.515259,245.665543 399.006287,241.385681 
	C399.022034,240.974350 399.105438,240.902649 399.105438,240.902649 
z"/>
<path fill="#404040" opacity="1.000000" stroke="none" 
	d="
M299.826721,228.822495 
	C299.880463,228.229752 299.908325,227.123795 299.991791,227.119583 
	C301.922455,227.022095 303.859161,227.044281 305.834961,227.044281 
	C305.834961,227.857300 305.834961,228.660309 305.919067,229.729355 
	C306.003204,229.995407 306.025574,229.969559 306.025574,229.969574 
	C304.391876,229.722794 302.758148,229.475998 300.620911,229.160461 
	C300.117371,229.091690 299.826721,228.822495 299.826721,228.822495 
z"/>
<path fill="#2E2E2E" opacity="1.000000" stroke="none" 
	d="
M405.989807,229.013672 
	C403.997131,228.777771 402.004456,228.541885 400.011749,228.305984 
	C400.044739,227.868011 400.077728,227.430038 400.110718,226.992050 
	C402.579712,227.118500 405.048676,227.244934 407.468445,227.718750 
	C406.942749,228.381958 406.466278,228.697800 405.989807,229.013672 
z"/>
<path fill="#5E4ED7" opacity="1.000000" stroke="none" 
	d="
M234.047150,59.633118 
	C232.430756,57.536640 230.752716,55.082859 229.054108,52.268417 
	C230.684189,54.363777 232.334839,56.819798 234.047150,59.633118 
z"/>
<path fill="#1A1A1A" opacity="1.000000" stroke="none" 
	d="
M310.201782,194.347061 
	C310.985626,193.886581 311.673615,193.757904 312.361603,193.629227 
	C312.200348,194.917969 312.039124,196.206711 311.877869,197.495438 
	C311.490417,197.507553 311.102936,197.519669 310.715485,197.531784 
	C310.512268,196.580811 310.309082,195.629837 310.201782,194.347061 
z"/>
<path fill="#060606" opacity="1.000000" stroke="none" 
	d="
M398.977966,241.007233 
	C398.257050,239.020584 397.580170,237.001068 396.903320,234.981552 
	C397.526184,234.853317 398.149078,234.725098 398.771942,234.596863 
	C398.863586,236.424454 398.955231,238.252029 399.076141,240.491135 
	C399.105438,240.902649 399.022034,240.974350 398.977966,241.007233 
z"/>
<path fill="#695AD9" opacity="1.000000" stroke="none" 
	d="
M222.978378,46.097260 
	C221.406281,44.895084 219.834183,43.692909 218.161987,42.162979 
	C219.624146,42.642925 221.186417,43.450638 222.878052,44.875504 
	C222.997742,45.694187 222.988068,45.895721 222.978378,46.097260 
z"/>
<path fill="#695AD9" opacity="1.000000" stroke="none" 
	d="
M218.315933,41.576580 
	C216.458282,40.818054 214.752853,39.712463 213.039764,38.261734 
	C214.844116,39.020905 216.656143,40.125214 218.315933,41.576580 
z"/>
<path fill="#695AD9" opacity="1.000000" stroke="none" 
	d="
M208.222595,36.389305 
	C208.007248,35.919777 208.008835,35.718086 208.014801,35.213715 
	C209.614777,35.713127 211.210358,36.515224 212.939514,37.637573 
	C211.528564,37.524261 209.984055,37.090698 208.222595,36.389305 
z"/>
<path fill="#5E4ED7" opacity="1.000000" stroke="none" 
	d="
M223.035736,46.437641 
	C222.988068,45.895721 222.997742,45.694187 223.023895,45.190395 
	C224.126740,45.914997 225.213089,46.941860 226.320587,48.267609 
	C225.258865,47.970337 224.175964,47.374180 223.035736,46.437641 
z"/>
<path fill="#5E4ED7" opacity="1.000000" stroke="none" 
	d="
M235.821396,64.655136 
	C235.186234,63.569489 234.605835,62.124481 234.031738,60.292126 
	C234.650742,61.368443 235.263458,62.832111 235.821396,64.655136 
z"/>
<path fill="#2E2E2E" opacity="1.000000" stroke="none" 
	d="
M445.980713,232.011444 
	C445.230621,230.778793 444.518280,229.515564 443.805939,228.252350 
	C444.265167,228.050034 444.724426,227.847717 445.183655,227.645386 
	C445.483948,228.834198 445.784210,230.022995 446.087952,231.564194 
	C446.091400,231.916595 446.018494,231.980865 445.980713,232.011444 
z"/>
<path fill="#E0DEF2" opacity="1.000000" stroke="none" 
	d="
M144.464340,265.999573 
	C143.496399,265.585266 142.905197,265.135101 142.167206,264.442993 
	C143.297714,264.391083 144.575012,264.581116 145.852310,264.771149 
	C145.515228,265.168671 145.178162,265.566193 144.464340,265.999573 
z"/>
<path fill="#131313" opacity="1.000000" stroke="none" 
	d="
M349.003784,147.004181 
	C349.600739,146.429108 350.186920,145.841843 350.811554,145.298782 
	C350.837463,145.276245 351.223114,145.667465 351.441162,145.865906 
	C350.845306,146.235107 350.249420,146.604309 349.322571,146.982635 
	C348.991577,146.991745 349.000000,146.999969 349.003784,147.004181 
z"/>
<path fill="#E0DEF2" opacity="1.000000" stroke="none" 
	d="
M77.665649,31.081947 
	C77.184196,31.756485 76.372803,32.362907 75.211296,32.960861 
	C75.686020,32.306206 76.510872,31.660019 77.665649,31.081947 
z"/>
<path fill="#E0DEF2" opacity="1.000000" stroke="none" 
	d="
M56.622269,43.921181 
	C56.174191,44.565369 55.394253,45.264969 54.247322,45.961884 
	C54.683685,45.298328 55.487049,44.637463 56.622269,43.921181 
z"/>
<path fill="#E0DEF2" opacity="1.000000" stroke="none" 
	d="
M68.606995,35.941280 
	C68.154716,36.582626 67.374344,37.273331 66.227768,37.958244 
	C66.667343,37.298512 67.473114,36.644577 68.606995,35.941280 
z"/>
<path fill="#E0DEF2" opacity="1.000000" stroke="none" 
	d="
M73.663345,33.074333 
	C73.184212,33.754646 72.372147,34.362198 71.209656,34.960663 
	C71.682953,34.301575 72.506683,33.651573 73.663345,33.074333 
z"/>
<path fill="#404040" opacity="1.000000" stroke="none" 
	d="
M297.949463,230.962616 
	C298.383606,230.316696 298.817749,229.670761 299.539307,228.923676 
	C299.826721,228.822495 300.117371,229.091690 300.269806,229.224091 
	C299.862396,229.930527 299.302551,230.504547 298.388123,231.055695 
	C298.033508,231.032822 297.949463,230.962616 297.949463,230.962616 
z"/>
<path fill="#5E4ED7" opacity="1.000000" stroke="none" 
	d="
M228.047394,50.636787 
	C227.462524,50.436852 226.829056,49.907238 226.286804,49.029373 
	C226.918274,49.223122 227.458557,49.765118 228.047394,50.636787 
z"/>
<path fill="#404040" opacity="1.000000" stroke="none" 
	d="
M298.074158,231.069473 
	C297.876434,231.870941 297.638031,232.635773 297.399628,233.400589 
	C297.199951,233.332230 297.000275,233.263855 296.800598,233.195496 
	C297.038391,232.553116 297.276154,231.910751 297.731689,231.115494 
	C297.949463,230.962616 298.033508,231.032822 298.074158,231.069473 
z"/>
<path fill="#060606" opacity="1.000000" stroke="none" 
	d="
M405.995605,229.005646 
	C406.466278,228.697800 406.942749,228.381958 407.717773,228.031647 
	C408.016296,227.997177 407.996918,228.000381 407.996887,228.233307 
	C407.996826,228.466232 408.011963,228.951294 408.011963,228.951294 
	C407.999146,229.143646 407.986359,229.335983 407.712860,229.783813 
	C407.452118,230.039322 406.971832,229.989456 406.971832,229.989456 
	C406.971832,229.989456 407.007111,229.993881 406.911987,229.774841 
	C406.538544,229.368851 406.260254,229.181885 405.981964,228.994934 
	C405.981964,228.994934 406.001434,228.997620 405.995605,229.005646 
z"/>
<path fill="#131313" opacity="1.000000" stroke="none" 
	d="
M367.014893,134.680023 
	C366.574463,134.657761 366.274658,134.489441 365.974854,134.321121 
	C366.368408,134.392075 366.761932,134.463028 367.014893,134.680023 
z"/>
<path fill="#2E2E2E" opacity="1.000000" stroke="none" 
	d="
M351.077606,244.099472 
	C350.659271,244.250717 350.187073,244.336594 349.714874,244.422485 
	C349.963318,244.279068 350.211792,244.135681 350.685608,243.950012 
	C350.910950,243.907730 351.023743,244.034103 351.077606,244.099472 
z"/>
<path fill="#252525" opacity="1.000000" stroke="none" 
	d="
M367.977173,197.231308 
	C368.418762,196.993317 368.854401,197.004028 369.615326,197.029739 
	C369.492737,197.360901 369.044861,197.677078 368.311279,198.009583 
	C368.025604,198.025925 368.001678,198.001770 367.989319,197.989685 
	C367.976929,197.977585 367.971191,197.480026 367.977173,197.231308 
z"/>
<path fill="#515152" opacity="1.000000" stroke="none" 
	d="
M384.515076,236.461365 
	C384.529846,236.451294 384.500305,236.471420 384.515076,236.461365 
z"/>
<path fill="#515152" opacity="1.000000" stroke="none" 
	d="
M463.978973,235.008621 
	C463.965820,235.015396 464.237030,235.127975 464.237030,235.127975 
	C464.237030,235.127975 464.145325,235.081863 464.074707,235.029068 
	C464.004059,234.976273 463.992126,235.001846 463.978973,235.008621 
z"/>
<path fill="#E0DEF2" opacity="1.000000" stroke="none" 
	d="
M32.705582,66.965775 
	C32.877445,67.181198 32.734375,67.452774 32.343292,67.831024 
	C32.257156,67.665855 32.355614,67.360603 32.705582,66.965775 
z"/>
<path fill="#515152" opacity="1.000000" stroke="none" 
	d="
M439.011658,237.001358 
	C439.025330,236.992950 438.666992,236.667526 438.666992,236.667526 
	C438.666992,236.667526 438.801331,236.263184 438.911499,236.133850 
	C439.021667,236.004532 438.997620,235.993561 438.942505,236.248825 
	C438.917450,236.681122 438.947540,236.858154 438.977600,237.035172 
	C438.977600,237.035172 438.997986,237.009766 439.011658,237.001358 
z"/>
<path fill="#252525" opacity="1.000000" stroke="none" 
	d="
M286.465637,234.476486 
	C286.510620,234.451691 286.420624,234.501282 286.465637,234.476486 
z"/>
<path fill="#E0DEF2" opacity="1.000000" stroke="none" 
	d="
M29.716768,70.985153 
	C29.872961,71.186188 29.731974,71.448257 29.358538,71.819122 
	C29.280426,71.664406 29.378260,71.370499 29.716768,70.985153 
z"/>
<path fill="#E0DEF2" opacity="1.000000" stroke="none" 
	d="
M69.721817,35.121025 
	C69.829422,35.438217 69.607193,35.646309 69.100632,35.862587 
	C69.075066,35.655918 69.266960,35.369637 69.721817,35.121025 
z"/>
<path fill="#E0DEF2" opacity="1.000000" stroke="none" 
	d="
M58.717758,42.125557 
	C58.823112,42.442543 58.596848,42.652203 58.086567,42.875435 
	C58.062401,42.669250 58.256931,42.378990 58.717758,42.125557 
z"/>
<path fill="#5E4ED7" opacity="1.000000" stroke="none" 
	d="
M229.008255,51.730755 
	C228.804474,51.795811 228.514648,51.599117 228.115601,51.158508 
	C228.311646,51.099396 228.616928,51.284199 229.008255,51.730755 
z"/>
<path fill="#E0DEF2" opacity="1.000000" stroke="none" 
	d="
M48.684570,49.972855 
	C48.735039,50.161247 48.529945,50.440308 48.089661,50.837898 
	C48.045975,50.658791 48.237488,50.361156 48.684570,49.972855 
z"/>
<path fill="#131313" opacity="1.000000" stroke="none" 
	d="
M370.517639,137.541946 
	C370.474243,137.565491 370.561005,137.518402 370.517639,137.541946 
z"/>
<path fill="#E0DEF2" opacity="1.000000" stroke="none" 
	d="
M49.718410,49.112686 
	C49.829899,49.432972 49.609425,49.642197 49.102600,49.857124 
	C49.075153,49.648304 49.265221,49.361237 49.718410,49.112686 
z"/>
<path fill="#1A1A1A" opacity="1.000000" stroke="none" 
	d="
M309.462158,199.446747 
	C309.511169,199.417953 309.413116,199.475555 309.462158,199.446747 
z"/>
<path fill="#E0DEF2" opacity="1.000000" stroke="none" 
	d="
M36.691368,62.005356 
	C36.864468,62.224167 36.725491,62.481712 36.344257,62.836170 
	C36.258839,62.671513 36.351265,62.375183 36.691368,62.005356 
z"/>
<path fill="#E0DEF2" opacity="1.000000" stroke="none" 
	d="
M61.716999,40.116432 
	C61.826077,40.437309 61.598679,40.650009 61.082092,40.874191 
	C61.056747,40.665874 61.252621,40.373402 61.716999,40.116432 
z"/>
<path fill="#E0DEF2" opacity="1.000000" stroke="none" 
	d="
M64.716934,38.118637 
	C64.825188,38.438053 64.598221,38.650162 64.083450,38.874641 
	C64.058304,38.667137 64.253662,38.375240 64.716934,38.118637 
z"/>
<path fill="#E0DEF2" opacity="1.000000" stroke="none" 
	d="
M37.712551,60.989410 
	C37.761173,61.166138 37.564003,61.434921 37.145763,61.825806 
	C37.105381,61.659092 37.286068,61.370281 37.712551,60.989410 
z"/>
<path fill="#2E2E2E" opacity="1.000000" stroke="none" 
	d="
M408.207886,228.873322 
	C408.011963,228.951294 407.996826,228.466232 407.999054,228.223602 
	C408.212891,228.135757 408.431091,228.283249 408.623779,228.458817 
	C408.639557,228.473175 408.481201,228.678680 408.207886,228.873322 
z"/>
<path fill="#2E2E2E" opacity="1.000000" stroke="none" 
	d="
M406.046143,229.255280 
	C406.260254,229.181885 406.538544,229.368851 406.917847,229.791626 
	C406.716034,229.856827 406.413208,229.686234 406.046143,229.255280 
z"/>
<path fill="#404040" opacity="1.000000" stroke="none" 
	d="
M305.990051,230.005920 
	C306.083649,230.071899 306.190369,230.127380 306.297119,230.182861 
	C306.216980,230.206665 306.136871,230.230484 306.041138,230.111923 
	C306.025574,229.969559 306.003204,229.995407 305.990051,230.005920 
z"/>
<path fill="#2E2E2E" opacity="1.000000" stroke="none" 
	d="
M407.042969,230.156738 
	C406.971832,229.989456 407.452118,230.039322 407.690735,230.072113 
	C407.657593,230.177933 407.385864,230.250992 407.042969,230.156738 
z"/>
<path fill="#2E2E2E" opacity="1.000000" stroke="none" 
	d="
M410.444580,230.539795 
	C410.385742,230.447357 410.623871,230.413162 410.623871,230.413162 
	C410.623871,230.413162 410.503448,230.632233 410.444580,230.539795 
z"/>
<path fill="#000000" opacity="1.000000" stroke="none" 
	d="
M113.839622,28.443691 
	C117.079544,27.721815 120.130455,27.356026 123.592621,26.903587 
	C129.682159,26.874645 135.360458,26.932352 141.556580,27.351168 
	C142.085571,28.386477 142.096741,29.060677 142.107910,29.734879 
	C140.429596,31.783993 137.206009,33.979675 137.383667,35.852749 
	C137.797089,40.211578 139.434814,44.618061 141.389328,48.606926 
	C142.606827,51.091618 152.876648,50.647198 155.906311,48.408585 
	C156.956650,47.632515 157.802597,46.579865 158.866180,45.075806 
	C158.990479,44.498066 159.114304,44.020191 159.114304,44.020191 
	C159.439285,43.974903 159.691757,43.815086 160.213409,43.209820 
	C160.846817,42.413445 161.138550,41.947990 161.430267,41.482536 
	C161.430267,41.482536 161.383621,41.383644 161.743988,41.321106 
	C162.765579,40.514614 163.426788,39.770657 164.087997,39.026703 
	C164.087997,39.026699 164.018219,39.012791 164.337372,39.029190 
	C165.069672,39.065571 165.482819,39.085552 165.895950,39.105534 
	C166.069672,39.681221 166.243378,40.256908 166.867188,41.268372 
	C170.209030,43.171436 173.100800,44.638725 175.992554,46.106010 
	C176.033966,46.428646 176.190659,46.679173 176.795197,47.211166 
	C177.743362,48.062637 178.358963,48.560528 178.974579,49.058418 
	C178.974579,49.058414 178.993805,48.999908 178.989655,49.360550 
	C180.172073,50.941387 181.358643,52.161579 182.545212,53.381775 
	C182.545212,53.381775 182.603958,53.405018 182.672363,53.664558 
	C182.926605,54.228958 183.198135,54.377148 183.555328,54.368664 
	C183.555328,54.368664 183.607468,54.405319 183.672882,54.666069 
	C183.919479,55.240181 184.190781,55.384529 184.552185,55.359875 
	C184.552185,55.359875 184.607147,55.405025 184.680771,55.672531 
	C184.955292,56.252491 185.240845,56.391285 185.611038,56.356422 
	C185.611038,56.356422 185.840332,56.259659 185.784714,56.575375 
	C185.909058,57.221191 186.186722,57.374523 186.562073,57.351093 
	C186.562073,57.351093 186.596924,57.422565 186.695374,57.755226 
	C187.858368,58.745682 188.922897,59.403473 189.987442,60.061264 
	C189.987442,60.061264 190.001877,60.004185 190.120361,60.337040 
	C191.841080,60.787769 193.443314,60.905643 195.045547,61.023518 
	C195.045547,61.023518 194.997391,61.000702 195.334503,60.997856 
	C196.485245,60.337765 197.298874,59.680519 198.112488,59.023270 
	C204.595169,59.423607 211.077835,59.823948 217.289459,60.598103 
	C211.993500,61.280212 206.968597,61.588505 201.943680,61.896797 
	C198.983170,63.426693 195.933762,64.815956 193.127594,66.589996 
	C192.465027,67.008873 192.620926,68.722420 192.499466,70.300682 
	C187.717575,72.472733 182.836533,74.184502 177.644714,76.036118 
	C175.765335,77.575867 174.196716,78.975769 172.628098,80.375656 
	C172.628098,80.375656 172.559204,80.532860 172.322678,80.608109 
	C171.947067,81.020058 171.807983,81.356766 171.668915,81.693481 
	C171.668915,81.693481 171.655838,81.634735 171.290649,81.671463 
	C170.160751,82.679924 169.396057,83.651657 168.631363,84.623398 
	C168.631363,84.623398 168.517426,84.578094 168.171875,84.708694 
	C165.950226,87.929230 164.074097,91.019150 162.197983,94.109077 
	C162.416992,95.195686 162.636002,96.282295 162.816956,97.993713 
	C161.848862,98.802216 160.918808,98.985893 159.988754,99.169571 
	C159.821060,99.136665 159.653366,99.103752 158.857086,99.050362 
	C157.229904,98.916588 156.231308,98.803284 155.232727,98.689987 
	C155.232727,98.689987 155.418549,98.598579 155.301483,98.222458 
	C154.467606,97.518532 153.750778,97.190720 153.033966,96.862915 
	C151.455704,95.172325 149.448334,93.711021 148.395096,91.739883 
	C146.608047,88.395485 144.440216,84.796112 144.195587,81.184479 
	C143.731949,74.339409 141.006943,69.058891 136.071350,63.898750 
	C135.327332,62.787239 134.679245,62.340580 134.031174,61.893921 
	C134.031174,61.893917 134.019211,61.966919 133.900299,61.642521 
	C128.051117,57.185978 121.855644,55.607258 114.589447,57.945244 
	C112.060509,59.223198 109.899055,60.444366 107.737595,61.665535 
	C107.737595,61.665535 107.743248,61.772003 107.435211,61.673584 
	C101.206001,65.449600 95.003578,69.084084 93.905556,77.073204 
	C89.428001,83.361717 91.699402,90.104805 94.691986,95.415070 
	C97.201408,99.867989 96.527519,103.858269 96.957962,108.138596 
	C97.088104,109.432755 98.076523,111.777641 98.480240,111.737022 
	C104.739433,111.107376 106.878517,116.605255 109.695168,119.986115 
	C114.517326,125.774223 116.675476,126.575050 122.012642,121.443260 
	C122.610489,120.868423 123.219315,120.305008 124.261688,119.730530 
	C124.832649,119.843597 124.964973,119.962433 125.097290,120.081276 
	C126.416237,122.010048 127.735191,123.938812 129.289948,126.212410 
	C128.498413,126.845406 127.142303,127.974052 125.738274,129.039551 
	C124.484154,129.991287 123.177132,130.873291 122.611847,131.275238 
	C118.962990,130.790268 115.946075,130.389282 112.341156,129.647934 
	C107.724968,130.026978 103.696770,130.746384 99.668571,131.465790 
	C99.668571,131.465775 99.636894,131.543686 99.303345,131.619308 
	C97.527596,132.600861 96.085396,133.506790 94.643188,134.412720 
	C94.643188,134.412720 94.608749,134.518677 94.341179,134.571228 
	C93.661438,135.071899 93.249268,135.520020 92.837105,135.968155 
	C92.517113,135.989532 92.270699,136.135315 91.698318,136.701004 
	C90.167183,138.315247 89.035583,139.633957 87.903984,140.952667 
	C87.903984,140.952667 87.977875,140.977615 87.653580,141.087189 
	C86.767265,142.377731 86.205238,143.558701 85.643211,144.739670 
	C85.643211,144.739670 85.561943,144.529617 85.227348,144.640060 
	C84.570732,145.133148 84.248703,145.515793 83.926682,145.898453 
	C83.491859,145.939163 83.057022,145.979858 81.925362,146.046295 
	C77.789421,147.708160 74.350311,149.344284 70.911201,150.980392 
	C70.603210,155.889297 70.383629,160.806335 69.933151,165.702133 
	C69.798637,167.164093 69.017906,168.566605 68.533249,169.996338 
	C68.086639,169.886627 67.640038,169.776901 67.193428,169.667175 
	C67.452049,168.116989 67.576782,166.530090 67.990387,165.022415 
	C71.433296,152.472168 64.477509,142.618332 59.609642,132.194916 
	C57.339863,127.334702 54.886440,122.486198 53.368206,117.379120 
	C52.563538,114.672348 53.582378,111.423485 53.809227,107.940170 
	C59.064327,108.811638 64.366974,108.628433 68.774994,104.273651 
	C69.647171,103.411995 72.124504,104.416206 73.587303,103.850578 
	C75.435226,103.136017 77.437347,101.993355 78.504417,100.439079 
	C79.029076,99.674873 77.667549,97.537064 77.032288,96.076210 
	C76.326401,94.452919 75.475494,92.892677 74.323753,90.754112 
	C70.827820,88.749229 67.676071,87.336113 64.568237,85.832237 
	C59.050823,83.162361 55.778049,84.678505 53.806656,90.883110 
	C53.806656,90.883110 53.899899,90.890053 53.520943,90.727188 
	C51.000519,92.591629 48.859051,94.618927 46.717583,96.646233 
	C46.717583,96.646233 46.723080,96.786041 46.429996,96.677994 
	C41.821014,98.181541 39.951637,101.415100 39.633835,106.090462 
	C38.248631,110.878647 37.186619,115.467934 36.124603,120.057213 
	C36.070576,120.470123 36.016552,120.883034 35.590546,121.865021 
	C35.198624,125.620750 35.178688,128.807404 35.158749,131.994049 
	C35.115898,138.028580 35.073048,144.063110 35.036728,151.011978 
	C35.771461,157.733154 35.712593,163.786148 37.431847,169.283020 
	C39.471233,175.803467 43.041637,181.845062 45.948532,188.094177 
	C45.948532,188.094177 45.970768,188.018661 45.992714,188.368835 
	C46.663998,189.182526 47.313335,189.646027 47.962669,190.109528 
	C48.689178,190.719772 49.379608,191.810028 50.147655,191.867752 
	C60.607983,192.654053 71.095802,193.983505 81.541412,193.728394 
	C88.212273,193.565475 93.960197,189.356918 99.339676,185.215073 
	C104.092094,181.556015 109.102325,178.212402 114.159859,174.981766 
	C115.543747,174.097763 117.507477,174.121490 119.438148,174.398621 
	C117.928139,175.479889 116.418137,176.561142 113.935661,178.338745 
	C124.952980,186.379929 135.326294,193.951065 146.738495,202.280472 
	C139.380234,199.347992 132.920227,196.773483 125.307823,193.739731 
	C126.172562,202.772842 127.104057,211.139786 127.680122,219.531113 
	C127.815125,221.497665 126.651375,223.527939 126.251419,225.561615 
	C125.213318,230.840195 124.267761,236.136978 123.227150,241.739441 
	C106.717598,243.461029 89.871902,245.217682 72.602921,246.987930 
	C57.182503,238.059433 44.429947,226.387863 34.848679,212.009964 
	C25.011019,197.247299 18.355309,180.971939 15.740133,162.964859 
	C13.370354,146.647446 14.217661,130.627960 18.280628,115.043472 
	C22.081591,100.463966 28.619976,86.705017 37.938904,74.573013 
	C49.295639,59.788055 62.872448,47.830784 79.821976,39.479641 
	C90.673225,34.133156 101.851753,30.704056 113.839622,28.443691 
z"/>
<path fill="#000000" opacity="1.000000" stroke="none" 
	d="
M180.917267,141.121796 
	C189.347916,153.394928 190.010269,166.934799 188.285416,181.205246 
	C187.704239,186.013687 189.722183,191.132309 190.520050,196.114304 
	C190.709412,197.296646 190.769211,198.499725 190.329422,199.794144 
	C187.378967,193.578705 183.880386,187.636169 185.029373,180.272186 
	C187.397324,165.095596 184.451218,150.985092 176.017883,138.079361 
	C175.838043,137.804138 175.737015,137.477402 175.733246,136.699860 
	C176.905365,136.854385 177.943451,137.483734 178.981552,138.113083 
	C179.027267,138.434082 179.185547,138.683655 179.714661,139.254425 
	C180.287704,140.138611 180.602493,140.630203 180.917267,141.121796 
z"/>
<path fill="#8174DF" opacity="1.000000" stroke="none" 
	d="
M162.399353,30.435555 
	C161.963257,23.573957 164.576843,22.368696 172.507843,25.411795 
	C175.408691,26.524847 178.344086,27.547832 181.737488,29.075741 
	C183.117081,30.039391 184.022919,30.539200 184.928741,31.039011 
	C184.928741,31.039013 184.969788,31.002083 184.972092,31.430552 
	C184.647278,33.926701 184.320160,35.994377 183.993042,38.062057 
	C176.893112,35.576916 169.793182,33.091770 162.399353,30.435555 
z"/>
<path fill="#4E3CD2" opacity="1.000000" stroke="none" 
	d="
M198.962219,38.051674 
	C202.074799,40.233540 205.038620,42.680099 208.336044,44.533035 
	C212.880096,47.086506 212.435272,50.618279 211.047226,55.724140 
	C206.453735,52.441830 202.391434,49.539085 198.167358,45.929016 
	C198.324478,42.831688 198.643341,40.441681 198.962219,38.051674 
z"/>
<path fill="#4E3CD2" opacity="1.000000" stroke="none" 
	d="
M45.955761,187.708832 
	C43.041637,181.845062 39.471233,175.803467 37.431847,169.283020 
	C35.712593,163.786148 35.771461,157.733154 35.108372,151.477127 
	C35.767368,151.710510 36.875198,152.390533 36.878628,153.076050 
	C36.937267,164.804199 41.116890,175.384445 45.770981,185.849442 
	C45.963989,186.283432 45.904728,186.829590 45.955761,187.708832 
z"/>
<path fill="#695AD9" opacity="1.000000" stroke="none" 
	d="
M184.195221,38.324883 
	C184.320160,35.994377 184.647278,33.926701 184.967102,31.457666 
	C187.063843,32.029381 189.167892,33.002449 191.627838,34.461555 
	C191.658905,37.294537 191.334106,39.641491 191.009293,41.988441 
	C188.805328,40.854862 186.601349,39.721287 184.195221,38.324883 
z"/>
<path fill="#5E4ED7" opacity="1.000000" stroke="none" 
	d="
M191.214981,42.252029 
	C191.334106,39.641491 191.658905,37.294537 191.972260,34.531525 
	C194.094467,35.327236 196.228134,36.539017 198.662018,37.901234 
	C198.643341,40.441681 198.324478,42.831688 198.001282,45.632500 
	C195.804871,44.867409 193.612778,43.691517 191.214981,42.252029 
z"/>
<path fill="#5E4ED7" opacity="1.000000" stroke="none" 
	d="
M177.955490,75.896271 
	C182.836533,74.184502 187.717575,72.472733 192.791580,70.426254 
	C195.403854,70.091545 197.823151,70.091545 201.522202,70.091545 
	C193.337524,72.564003 186.494354,74.631210 179.105560,76.715164 
	C178.358444,76.453369 178.156967,76.174820 177.955490,75.896271 
z"/>
<path fill="#5E4ED7" opacity="1.000000" stroke="none" 
	d="
M54.147034,90.807922 
	C55.778049,84.678505 59.050823,83.162361 64.568237,85.832237 
	C67.676071,87.336113 70.827820,88.749229 74.010376,90.570526 
	C71.551544,90.195763 68.643303,90.022896 66.611511,88.599220 
	C61.595768,85.084702 57.918423,86.577965 54.147034,90.807922 
z"/>
<path fill="#5E4ED7" opacity="1.000000" stroke="none" 
	d="
M94.179825,76.872337 
	C95.003578,69.084084 101.206001,65.449600 107.488457,61.671104 
	C103.384529,66.735184 98.919304,71.703323 94.179825,76.872337 
z"/>
<path fill="#695AD9" opacity="1.000000" stroke="none" 
	d="
M114.956917,57.888462 
	C121.855644,55.607258 128.051117,57.185978 133.937286,61.641594 
	C128.035309,61.006245 121.977455,60.047421 115.453705,58.799934 
	C114.977509,58.303669 114.967209,58.096066 114.956917,57.888462 
z"/>
<path fill="#220DC9" opacity="1.000000" stroke="none" 
	d="
M178.954483,137.758392 
	C177.943451,137.483734 176.905365,136.854385 175.437729,136.414093 
	C175.008194,136.603134 175.013657,136.602417 175.314774,136.344986 
	C175.321915,135.618378 175.027939,135.149200 174.733963,134.680038 
	C174.525665,135.101456 174.317383,135.522858 174.109085,135.944275 
	C172.480499,134.489624 170.851898,133.034973 169.223312,131.580322 
	C169.578339,131.155502 169.933365,130.730682 170.288406,130.305862 
	C174.000687,131.477966 177.051819,133.598083 178.954483,137.758392 
z"/>
<path fill="#4E3CD2" opacity="1.000000" stroke="none" 
	d="
M202.194824,62.173660 
	C206.968597,61.588505 211.993500,61.280212 217.482788,60.949562 
	C218.891388,60.992348 219.835632,61.057487 220.779861,61.122627 
	C220.776733,61.565258 220.773605,62.007889 220.770477,62.450520 
	C214.662308,62.450520 208.554153,62.450520 202.194824,62.173660 
z"/>
<path fill="#4E3CD2" opacity="1.000000" stroke="none" 
	d="
M36.476566,119.953445 
	C37.186619,115.467934 38.248631,110.878647 39.649284,106.383591 
	C39.993938,106.673370 39.999958,106.868942 40.005978,107.064514 
	C38.946831,111.326233 37.887680,115.587959 36.476566,119.953445 
z"/>
<path fill="#4E3CD2" opacity="1.000000" stroke="none" 
	d="
M162.403519,94.264839 
	C164.074097,91.019150 165.950226,87.929230 168.116318,84.734596 
	C166.473892,87.893463 164.541473,91.157036 162.403519,94.264839 
z"/>
<path fill="#5E4ED7" opacity="1.000000" stroke="none" 
	d="
M40.273720,106.841583 
	C39.999958,106.868942 39.993938,106.673370 39.972473,106.184677 
	C39.951637,101.415100 41.821014,98.181541 46.499935,96.679565 
	C44.755791,100.065674 42.648624,103.342163 40.273720,106.841583 
z"/>
<path fill="#4E3CD2" opacity="1.000000" stroke="none" 
	d="
M100.075691,131.599182 
	C103.696770,130.746384 107.724968,130.026978 111.914665,129.627899 
	C108.211716,130.542984 104.347267,131.137787 100.075691,131.599182 
z"/>
<path fill="#4E3CD2" opacity="1.000000" stroke="none" 
	d="
M35.525860,131.880203 
	C35.178688,128.807404 35.198624,125.620750 35.552906,122.175911 
	C35.889156,125.200600 35.891064,128.483475 35.525860,131.880203 
z"/>
<path fill="#4E3CD2" opacity="1.000000" stroke="none" 
	d="
M71.299553,150.977173 
	C74.350311,149.344284 77.789421,147.708160 81.605972,146.119385 
	C78.551575,147.769150 75.119743,149.371552 71.299553,150.977173 
z"/>
<path fill="#220DC9" opacity="1.000000" stroke="none" 
	d="
M175.945892,45.758480 
	C173.100800,44.638725 170.209030,43.171436 167.139221,41.409325 
	C169.940536,42.546654 172.919876,43.978802 175.945892,45.758480 
z"/>
<path fill="#5E4ED7" opacity="1.000000" stroke="none" 
	d="
M47.071114,96.749077 
	C48.859051,94.618927 51.000519,92.591629 53.509178,90.681946 
	C51.725792,92.817017 49.575214,94.834465 47.071114,96.749077 
z"/>
<path fill="#E0DEF2" opacity="1.000000" stroke="none" 
	d="
M142.436371,29.592321 
	C142.096741,29.060677 142.085571,28.386477 142.021988,27.377052 
	C143.790161,27.261761 145.610748,27.481693 147.742493,27.864578 
	C146.290710,28.501608 144.527771,28.975685 142.436371,29.592321 
z"/>
<path fill="#4E3CD2" opacity="1.000000" stroke="none" 
	d="
M177.644714,76.036118 
	C178.156967,76.174820 178.358444,76.453369 178.781097,76.868378 
	C177.104355,78.245819 175.206436,79.486801 172.968292,80.551727 
	C174.196716,78.975769 175.765335,77.575867 177.644714,76.036118 
z"/>
<path fill="#5E4ED7" opacity="1.000000" stroke="none" 
	d="
M114.589447,57.945244 
	C114.967209,58.096066 114.977509,58.303669 114.996773,58.824379 
	C112.830620,60.045151 110.655502,60.952820 108.108994,61.763012 
	C109.899055,60.444366 112.060509,59.223198 114.589447,57.945244 
z"/>
<path fill="#4E3CD2" opacity="1.000000" stroke="none" 
	d="
M160.064056,99.489105 
	C160.918808,98.985893 161.848862,98.802216 162.966339,98.312592 
	C163.848694,97.982727 164.543625,97.958801 165.619476,97.963623 
	C166.000412,97.992371 166.074341,98.059387 166.074341,98.059387 
	C164.383942,99.619385 163.005722,102.238525 160.064056,99.489105 
z"/>
<path fill="#4E3CD2" opacity="1.000000" stroke="none" 
	d="
M88.259689,140.931061 
	C89.035583,139.633957 90.167183,138.315247 91.633774,136.912842 
	C90.850967,138.189240 89.733177,139.549347 88.259689,140.931061 
z"/>
<path fill="#4E3CD2" opacity="1.000000" stroke="none" 
	d="
M94.991867,134.573212 
	C96.085396,133.506790 97.527596,132.600861 99.305634,131.661301 
	C98.207832,132.663010 96.774185,133.698364 94.991867,134.573212 
z"/>
<path fill="#220DC9" opacity="1.000000" stroke="none" 
	d="
M182.589905,53.031265 
	C181.358643,52.161579 180.172073,50.941387 178.961578,49.373199 
	C180.169983,50.243725 181.402283,51.462246 182.589905,53.031265 
z"/>
<path fill="#220DC9" opacity="1.000000" stroke="none" 
	d="
M166.148972,38.956512 
	C165.482819,39.085552 165.069672,39.065571 164.347153,39.063404 
	C164.876205,38.424717 165.714645,37.768219 166.553101,37.111725 
	C166.502731,37.676979 166.452362,38.242237 166.148972,38.956512 
z"/>
<path fill="#4E3CD2" opacity="1.000000" stroke="none" 
	d="
M155.315796,99.000664 
	C156.231308,98.803284 157.229904,98.916588 158.605255,99.098213 
	C157.787643,99.214813 156.593246,99.263077 155.315796,99.000664 
z"/>
<path fill="#4E3CD2" opacity="1.000000" stroke="none" 
	d="
M168.974457,84.638733 
	C169.396057,83.651657 170.160751,82.679924 171.260559,81.671036 
	C170.836288,82.640610 170.076920,83.647339 168.974457,84.638733 
z"/>
<path fill="#220DC9" opacity="1.000000" stroke="none" 
	d="
M194.671310,60.998619 
	C193.443314,60.905643 191.841080,60.787769 190.092819,60.347435 
	C191.396881,60.341225 192.846985,60.657471 194.671310,60.998619 
z"/>
<path fill="#695AD9" opacity="1.000000" stroke="none" 
	d="
M185.041992,30.776531 
	C184.022919,30.539200 183.117081,30.039391 182.066071,29.244991 
	C182.946274,28.961395 183.971664,28.972389 185.376801,28.970963 
	C185.556122,29.477047 185.355682,29.995550 185.041992,30.776531 
z"/>
<path fill="#4E3CD2" opacity="1.000000" stroke="none" 
	d="
M85.976837,144.655182 
	C86.205238,143.558701 86.767265,142.377731 87.640511,141.050446 
	C87.404648,142.126328 86.857559,143.348511 85.976837,144.655182 
z"/>
<path fill="#220DC9" opacity="1.000000" stroke="none" 
	d="
M189.860138,59.759285 
	C188.922897,59.403473 187.858368,58.745682 186.712189,57.791252 
	C187.664658,58.148846 188.698761,58.803074 189.860138,59.759285 
z"/>
<path fill="#220DC9" opacity="1.000000" stroke="none" 
	d="
M197.779190,59.042053 
	C197.298874,59.680519 196.485245,60.337765 195.340317,61.023861 
	C195.821304,60.388752 196.633606,59.724789 197.779190,59.042053 
z"/>
<path fill="#220DC9" opacity="1.000000" stroke="none" 
	d="
M163.781006,39.138306 
	C163.426788,39.770657 162.765579,40.514614 161.795929,41.338154 
	C162.149673,40.695129 162.811829,39.972519 163.781006,39.138306 
z"/>
<path fill="#695AD9" opacity="1.000000" stroke="none" 
	d="
M134.042694,62.207508 
	C134.679245,62.340580 135.327332,62.787239 135.900909,63.582787 
	C135.235687,63.461479 134.644958,62.991287 134.042694,62.207508 
z"/>
<path fill="#220DC9" opacity="1.000000" stroke="none" 
	d="
M181.138931,140.927505 
	C180.602493,140.630203 180.287704,140.138611 179.929749,139.327698 
	C180.377930,139.583328 180.869263,140.158264 181.138931,140.927505 
z"/>
<path fill="#4E3CD2" opacity="1.000000" stroke="none" 
	d="
M47.920517,189.778244 
	C47.313335,189.646027 46.663998,189.182526 45.956181,188.383484 
	C46.557919,188.514282 47.218140,188.980621 47.920517,189.778244 
z"/>
<path fill="#4E3CD2" opacity="1.000000" stroke="none" 
	d="
M153.084015,97.216370 
	C153.750778,97.190720 154.467606,97.518532 155.276367,98.122009 
	C154.623550,98.121719 153.878815,97.845772 153.084015,97.216370 
z"/>
<path fill="#4E3CD2" opacity="1.000000" stroke="none" 
	d="
M84.124573,146.133514 
	C84.248703,145.515793 84.570732,145.133148 85.116684,144.660904 
	C85.001236,145.170395 84.661850,145.769501 84.124573,146.133514 
z"/>
<path fill="#220DC9" opacity="1.000000" stroke="none" 
	d="
M178.934082,48.727104 
	C178.358963,48.560528 177.743362,48.062637 177.010193,47.285255 
	C177.559631,47.469109 178.226608,47.932449 178.934082,48.727104 
z"/>
<path fill="#000000" opacity="1.000000" stroke="none" 
	d="
M174.360458,136.051300 
	C174.317383,135.522858 174.525665,135.101456 174.733963,134.680038 
	C175.027939,135.149200 175.321915,135.618378 175.304565,136.318588 
	C174.866104,136.419205 174.738968,136.288773 174.360458,136.051300 
z"/>
<path fill="#000000" opacity="1.000000" stroke="none" 
	d="
M124.527122,119.521858 
	C124.810081,119.051277 125.266258,118.783592 125.722435,118.515900 
	C125.684998,118.951431 125.647552,119.386971 125.353699,119.951889 
	C124.964973,119.962433 124.832649,119.843597 124.527122,119.521858 
z"/>
<path fill="#4E3CD2" opacity="1.000000" stroke="none" 
	d="
M224.217773,60.630241 
	C223.988708,60.675621 223.857986,60.618710 223.727280,60.561802 
	C223.923569,60.550518 224.119843,60.539234 224.217773,60.630241 
z"/>
<path fill="#4E3CD2" opacity="1.000000" stroke="none" 
	d="
M93.166420,135.944626 
	C93.249268,135.520020 93.661438,135.071899 94.377563,134.613419 
	C94.286255,135.042404 93.890991,135.481750 93.166420,135.944626 
z"/>
<path fill="#220DC9" opacity="1.000000" stroke="none" 
	d="
M161.109497,41.467903 
	C161.138550,41.947990 160.846817,42.413445 160.290726,42.993416 
	C160.280472,42.556377 160.534592,42.004822 161.109497,41.467903 
z"/>
<path fill="#4E3CD2" opacity="1.000000" stroke="none" 
	d="
M167.522675,95.542313 
	C167.479416,95.566498 167.565948,95.518120 167.522675,95.542313 
z"/>
<path fill="#4E3CD2" opacity="1.000000" stroke="none" 
	d="
M171.954590,81.669189 
	C171.807983,81.356766 171.947067,81.020058 172.378555,80.673233 
	C172.527405,80.990379 172.383850,81.317642 171.954590,81.669189 
z"/>
<path fill="#4E3CD2" opacity="1.000000" stroke="none" 
	d="
M165.967072,97.955261 
	C166.063889,97.914886 166.194077,97.911629 166.199295,97.983879 
	C166.074341,98.059387 166.000412,97.992371 165.967072,97.955261 
z"/>
<path fill="#220DC9" opacity="1.000000" stroke="none" 
	d="
M185.620880,56.068577 
	C185.240845,56.391285 184.955292,56.252491 184.698730,55.703228 
	C184.972275,55.571190 185.301498,55.675961 185.620880,56.068577 
z"/>
<path fill="#220DC9" opacity="1.000000" stroke="none" 
	d="
M184.582092,55.072872 
	C184.190781,55.384529 183.919479,55.240181 183.681427,54.696777 
	C183.953705,54.573112 184.282852,54.679489 184.582092,55.072872 
z"/>
<path fill="#220DC9" opacity="1.000000" stroke="none" 
	d="
M183.584595,54.080624 
	C183.198135,54.377148 182.926605,54.228958 182.683685,53.694046 
	C182.955688,53.573524 183.284790,53.683052 183.584595,54.080624 
z"/>
<path fill="#220DC9" opacity="1.000000" stroke="none" 
	d="
M186.590515,57.064636 
	C186.186722,57.374523 185.909058,57.221191 185.683868,56.648289 
	C185.965424,56.529716 186.292206,56.653946 186.590515,57.064636 
z"/>
<path fill="#220DC9" opacity="1.000000" stroke="none" 
	d="
M158.945114,44.073830 
	C159.114304,44.020191 158.990479,44.498066 158.911011,44.731499 
	C158.731369,44.768627 158.610168,44.578861 158.545715,44.371468 
	C158.529419,44.319038 158.694290,44.210316 158.945114,44.073830 
z"/>
<path fill="#000000" opacity="1.000000" stroke="none" 
	d="
M439.212158,236.962494 
	C438.947540,236.858154 438.917450,236.681122 438.933228,236.238647 
	C439.213043,236.134888 439.460693,236.281891 439.665863,236.474289 
	C439.696106,236.502640 439.524780,236.745941 439.212158,236.962494 
z"/>
</svg>