<svg xmlns="http://www.w3.org/2000/svg" viewBox="0 0 890 529" fill="none">
    <path vector-effect="non-scaling-stroke" stroke="#FF0651" stroke-miterlimit="10" stroke-width="13"
          d="M351.109 350.643H44.827C23.937 350.643 7 370.32 7 394.591v83.928c0 24.271 16.936 43.948 37.827 43.948h268.455c20.891 0 37.827-19.677 37.827-43.948V50.948C351.109 26.677 368.045 7 388.936 7h371.753c10.032 0 19.652 4.63 26.747 12.873l84.483 98.154c7.095 8.242 11.081 19.418 11.081 31.074v329.418c0 24.271-16.936 43.948-37.827 43.948H685.714c-10.033 0-19.653-4.631-26.747-12.873L533.234 363.517c-7.095-8.243-16.715-12.874-26.747-12.874H351.109Z"/>
</svg>