<svg width="240" height="240" viewBox="0 0 425 425" fill="none" xmlns="http://www.w3.org/2000/svg">
    <circle cx="212.5" cy="212.5" r="212.5" fill="#eae7e7"/>
    <rect x="78" y="76" width="257" height="25" rx="5" fill="white"/>
    <rect x="84" y="316" width="257" height="25" rx="5" fill="white"/>
    <g clip-path="url(#clip0_313_2305)" filter="url(#filter0_d_313_2305)">
        <path d="M362.973 95H50.0273C45.0416 95 41 98.7282 41 103.327V315.673C41 320.272 45.0416 324 50.0273 324H362.973C367.958 324 372 320.272 372 315.673V103.327C372 98.7282 367.958 95 362.973 95Z"
              fill="white"/>
        <path d="M41 103.327C41 98.7282 45.0416 95 50.0273 95H362.973C367.959 95 372 98.7282 372 103.327V128.309H41V103.327Z"
              fill="#F2F2F2"/>
        <path fill-rule="evenodd" clip-rule="evenodd"
              d="M59.0547 115.818C61.5475 115.818 63.5683 113.954 63.5683 111.655C63.5683 109.355 61.5475 107.491 59.0547 107.491C56.5618 107.491 54.541 109.355 54.541 111.655C54.541 113.954 56.5618 115.818 59.0547 115.818ZM74.1001 115.818C76.593 115.818 78.6137 113.954 78.6137 111.655C78.6137 109.355 76.593 107.491 74.1001 107.491C71.6072 107.491 69.5865 109.355 69.5865 111.655C69.5865 113.954 71.6072 115.818 74.1001 115.818ZM93.6592 111.655C93.6592 113.954 91.6384 115.818 89.1456 115.818C86.6527 115.818 84.6319 113.954 84.6319 111.655C84.6319 109.355 86.6527 107.491 89.1456 107.491C91.6384 107.491 93.6592 109.355 93.6592 111.655Z"
              fill="#6D6E5E"/>
        <path fill-rule="evenodd" clip-rule="evenodd"
              d="M60.5591 171.333C60.5591 169.8 61.9063 168.558 63.5682 168.558H177.914C179.576 168.558 180.923 169.8 180.923 171.333V176.885C180.923 178.418 179.576 179.661 177.914 179.661H63.5682C61.9063 179.661 60.5591 178.418 60.5591 176.885V171.333ZM60.5591 189.376C60.5591 187.843 61.9063 186.6 63.5682 186.6H192.959C194.622 186.6 195.968 187.843 195.968 189.376V194.927C195.968 196.46 194.622 197.703 192.959 197.703H63.5682C61.9063 197.703 60.5591 196.46 60.5591 194.927V189.376ZM63.5682 222.685C61.9063 222.685 60.5591 223.928 60.5591 225.461V231.012C60.5591 232.545 61.9063 233.788 63.5682 233.788H208.005C209.667 233.788 211.014 232.545 211.014 231.012V225.461C211.014 223.928 209.667 222.685 208.005 222.685H63.5682ZM60.5591 243.503C60.5591 241.969 61.9063 240.727 63.5682 240.727H162.868C164.53 240.727 165.877 241.969 165.877 243.503V249.055C165.877 250.588 164.53 251.83 162.868 251.83H63.5682C61.9063 251.83 60.5591 250.588 60.5591 249.055V243.503ZM63.5682 258.77C61.9063 258.77 60.5591 260.012 60.5591 261.545V267.097C60.5591 268.631 61.9063 269.873 63.5682 269.873H192.959C194.622 269.873 195.968 268.631 195.968 267.097V261.545C195.968 260.012 194.622 258.77 192.959 258.77H63.5682ZM60.5591 279.588C60.5591 278.054 61.9063 276.812 63.5682 276.812H208.005C209.667 276.812 211.014 278.054 211.014 279.588V285.139C211.014 286.673 209.667 287.915 208.005 287.915H63.5682C61.9063 287.915 60.5591 286.673 60.5591 285.139V279.588ZM63.5682 294.855C61.9063 294.855 60.5591 296.097 60.5591 297.63V303.182C60.5591 304.715 61.9063 305.958 63.5682 305.958H162.868C164.53 305.958 165.877 304.715 165.877 303.182V297.63C165.877 296.097 164.53 294.855 162.868 294.855H63.5682Z"
              fill="#F2F2F2"/>
        <path d="M208.005 150.515H63.5682C61.9063 150.515 60.5591 151.758 60.5591 153.291V158.842C60.5591 160.375 61.9063 161.618 63.5682 161.618H208.005C209.666 161.618 211.014 160.375 211.014 158.842V153.291C211.014 151.758 209.666 150.515 208.005 150.515Z"
              fill="#6D6E5E"/>
        <path fill-rule="evenodd" clip-rule="evenodd"
              d="M250.132 168.558C248.469 168.558 247.123 169.8 247.123 171.333V176.885C247.123 178.418 248.469 179.661 250.132 179.661H349.432C351.094 179.661 352.441 178.418 352.441 176.885V171.333C352.441 169.8 351.094 168.558 349.432 168.558H250.132ZM250.132 186.6C248.469 186.6 247.123 187.843 247.123 189.376V194.927C247.123 196.46 248.469 197.703 250.132 197.703H319.341C321.004 197.703 322.35 196.46 322.35 194.927V189.376C322.35 187.843 321.004 186.6 319.341 186.6H250.132ZM247.123 207.418C247.123 205.885 248.469 204.642 250.132 204.642H334.386C336.049 204.642 337.396 205.885 337.396 207.418V212.97C337.396 214.503 336.049 215.745 334.386 215.745H250.132C248.469 215.745 247.123 214.503 247.123 212.97V207.418ZM250.132 222.685C248.469 222.685 247.123 223.928 247.123 225.461V231.012C247.123 232.545 248.469 233.788 250.132 233.788H304.296C305.958 233.788 307.305 232.545 307.305 231.012V225.461C307.305 223.928 305.958 222.685 304.296 222.685H250.132Z"
              fill="#F2F2F2"/>
    </g>
    <defs>
        <filter id="filter0_d_313_2305" x="21" y="79" width="371" height="269" filterUnits="userSpaceOnUse"
                color-interpolation-filters="sRGB">
            <feFlood flood-opacity="0" result="BackgroundImageFix"/>
            <feColorMatrix in="SourceAlpha" type="matrix" values="0 0 0 0 0 0 0 0 0 0 0 0 0 0 0 0 0 0 127 0"
                           result="hardAlpha"/>
            <feOffset dy="4"/>
            <feGaussianBlur stdDeviation="10"/>
            <feComposite in2="hardAlpha" operator="out"/>
            <feColorMatrix type="matrix" values="0 0 0 0 0 0 0 0 0 0 0 0 0 0 0 0 0 0 0.25 0"/>
            <feBlend mode="normal" in2="BackgroundImageFix" result="effect1_dropShadow_313_2305"/>
            <feBlend mode="normal" in="SourceGraphic" in2="effect1_dropShadow_313_2305" result="shape"/>
        </filter>
        <clipPath id="clip0_313_2305">
            <rect width="331" height="229" fill="white" transform="translate(41 95)"/>
        </clipPath>
    </defs>
</svg>
